<?xml version="1.0" encoding="UTF-8"?>
<svg width="489px" height="16px" viewBox="0 0 489 16" version="1.1" xmlns="http://www.w3.org/2000/svg" xmlns:xlink="http://www.w3.org/1999/xlink">
    <!-- Generator: Sketch 43.1 (39012) - http://www.bohemiancoding.com/sketch -->
    <title>Group 18</title>
    <desc>Created with Sketch.</desc>
    <defs></defs>
    <g id="Page-1" stroke="none" stroke-width="1" fill="none" fill-rule="evenodd">
        <g id="Desktop-Copy-11" transform="translate(-268.000000, -2629.000000)" fill="#FFFFFF">
            <g id="Group-32" transform="translate(52.000000, 2602.000000)">
                <g id="Group-18" transform="translate(216.000000, 27.000000)">
                    <path d="M117.267211,4.98255315 C117.3134,5.24744638 117.381293,5.66982866 117.46755,6.08831544 C117.481463,6.15453875 117.571059,6.22298805 117.641734,6.25470846 C117.705732,6.28364638 117.853204,6.28142038 117.858212,6.26361244 C118.133122,5.26024585 118.578321,4.28581717 118.443092,3.21066229 C118.42751,3.08711965 118.228284,2.9663595 118.090829,2.88288474 C117.902176,2.76713307 117.771955,2.85339032 117.653421,3.03870429 C117.301157,3.58852469 117.423587,4.22404585 117.267211,4.98255315 M120.14709,5.55407699 C120.073076,5.84735164 120.027443,5.93360889 120.035234,6.01430116 C120.050259,6.17735519 120.044138,6.39772855 120.142082,6.48009031 C120.22333,6.54798311 120.502693,6.51014122 120.590063,6.41887549 C121.065869,5.92526142 121.516633,5.40771792 121.958492,4.88293994 C122.096504,4.71877292 122.014142,4.56851835 121.848306,4.43161975 C121.081451,3.79832458 120.525509,3.90572877 120.315153,4.74771083 C120.231678,5.08383586 120.173246,5.42608236 120.14709,5.55407699 M126.52957,6.9675829 C126.493398,6.89356861 126.477259,6.78393843 126.41827,6.74999203 C126.049868,6.53462715 125.68258,6.31258429 125.290805,6.14953027 C125.182844,6.1044539 124.915725,6.21074509 124.855623,6.32037527 C124.478317,7.01599825 124.424893,7.78507902 124.440475,8.55916828 C124.442145,8.62539159 124.52228,8.71498783 124.587947,8.74782123 C124.659179,8.78232413 124.788843,8.80124508 124.838928,8.76117719 C125.374279,8.33044744 125.910187,7.8974917 126.41827,7.43559804 C126.516214,7.3465583 126.495624,7.12729793 126.52957,6.9675829 M122.232846,8.92868321 C122.232846,8.5508208 122.284044,8.25643316 121.989656,8.17629739 C121.863331,8.14235099 121.652418,8.27257161 121.532771,8.38442779 C120.266737,9.56698686 119.280622,11.0673065 117.607788,11.7879719 C117.38185,11.8848026 117.31507,12.5253323 117.464768,12.7546096 C117.651195,13.0395368 117.913862,12.970531 118.159278,12.8614573 C119.039102,12.4724649 119.911135,12.0656646 120.792628,11.6805677 C121.398655,11.4167875 121.784308,11.0033092 121.899503,10.3293896 C121.987987,9.81407214 122.139911,9.30932811 122.232846,8.92868321 M51.6109748,7.18239127 C50.2586837,7.22412865 47.9481024,7.30704691 45.6375211,7.36492274 C41.1916555,7.47622242 36.7446769,7.53242876 32.3004808,7.68713531 C26.1684251,7.90083069 20.0391518,8.19410534 13.9082091,8.43451264 C9.73113222,8.59867967 5.55294233,8.73669127 1.37530895,8.86524239 C1.03751442,8.87525936 0.662434512,8.77675915 0.365820872,8.61704411 C0.177724418,8.51576141 0.0118878987,8.21024379 0.000757930938,7.98764444 C-0.0109285352,7.7583671 0.113727103,7.42725056 0.291806587,7.30537742 C0.568942784,7.11561147 0.937344715,6.98706034 1.27458274,6.9675829 C4.64863245,6.78226893 8.02268217,6.59027699 11.3989579,6.46673435 C19.9306346,6.15453875 28.4628679,5.84234316 36.9973272,5.59915336 C42.7748934,5.43442984 48.5557987,5.37265852 54.3355909,5.29419225 C58.3379273,5.23909891 62.3408202,5.2062655 66.3437131,5.21183049 C74.6155051,5.22351695 82.8911926,5.14004219 91.1596456,5.33648612 C97.9127535,5.49675766 104.671983,5.72659149 111.405613,6.36155615 C112.378373,6.45282189 113.345567,6.60641544 114.317213,6.71103714 C114.937709,6.77837344 115.298876,6.45115239 115.319467,5.77834584 C115.358978,4.44441921 115.36343,3.11049258 115.395707,1.77656595 C115.404054,1.42430247 115.444122,1.07036949 115.503668,0.7231145 C115.566552,0.354712568 116.138076,-0.0609917263 116.513712,0.00745757526 C116.944442,0.0859238478 117.388528,0.169955104 117.785867,0.343582601 C119.658484,1.16386122 121.528876,1.99026133 123.37812,2.8611813 C125.788871,3.99755101 128.181814,5.1734321 130.576426,6.3454177 C130.972097,6.53907914 131.351072,6.77892994 131.708901,7.03714519 C132.084537,7.3092729 132.098449,8.20189632 131.740064,8.48793649 C131.465154,8.70719685 131.176888,8.92701371 130.86191,9.07671178 C127.492312,10.6838791 124.114924,12.2743515 120.7431,13.8753974 C119.940629,14.2560423 119.160418,14.684546 118.3496,15.044044 C117.86656,15.2588524 117.349573,15.4063244 116.836481,15.5404405 C116.325059,15.6728872 115.675069,15.3000332 115.597159,14.7908372 C115.475843,14.0050615 115.399602,13.2081558 115.365656,12.4134761 C115.323919,11.4384909 115.368438,10.4596103 115.328371,9.4840686 C115.312789,9.11455367 115.071825,8.81237505 114.671146,8.7595077 C113.085682,8.5508208 111.502444,8.2775801 109.909189,8.17963638 C105.826717,7.92921211 101.73701,7.80233047 97.6545383,7.54968021 C88.2358031,6.9659134 78.8059379,7.12507194 69.3794118,7.07220459 C63.7760295,7.04048418 58.1726473,7.1367584 51.6109748,7.18239127" id="Fill-61"></path>
                    <path d="M474.267211,4.98255315 C474.3134,5.24744638 474.381293,5.66982866 474.46755,6.08831544 C474.481463,6.15453875 474.571059,6.22298805 474.641734,6.25470846 C474.705732,6.28364638 474.853204,6.28142038 474.858212,6.26361244 C475.133122,5.26024585 475.578321,4.28581717 475.443092,3.21066229 C475.42751,3.08711965 475.228284,2.9663595 475.090829,2.88288474 C474.902176,2.76713307 474.771955,2.85339032 474.653421,3.03870429 C474.301157,3.58852469 474.423587,4.22404585 474.267211,4.98255315 M477.14709,5.55407699 C477.073076,5.84735164 477.027443,5.93360889 477.035234,6.01430116 C477.050259,6.17735519 477.044138,6.39772855 477.142082,6.48009031 C477.22333,6.54798311 477.502693,6.51014122 477.590063,6.41887549 C478.065869,5.92526142 478.516633,5.40771792 478.958492,4.88293994 C479.096504,4.71877292 479.014142,4.56851835 478.848306,4.43161975 C478.081451,3.79832458 477.525509,3.90572877 477.315153,4.74771083 C477.231678,5.08383586 477.173246,5.42608236 477.14709,5.55407699 M483.52957,6.9675829 C483.493398,6.89356861 483.477259,6.78393843 483.41827,6.74999203 C483.049868,6.53462715 482.68258,6.31258429 482.290805,6.14953027 C482.182844,6.1044539 481.915725,6.21074509 481.855623,6.32037527 C481.478317,7.01599825 481.424893,7.78507902 481.440475,8.55916828 C481.442145,8.62539159 481.52228,8.71498783 481.587947,8.74782123 C481.659179,8.78232413 481.788843,8.80124508 481.838928,8.76117719 C482.374279,8.33044744 482.910187,7.8974917 483.41827,7.43559804 C483.516214,7.3465583 483.495624,7.12729793 483.52957,6.9675829 M479.232846,8.92868321 C479.232846,8.5508208 479.284044,8.25643316 478.989656,8.17629739 C478.863331,8.14235099 478.652418,8.27257161 478.532771,8.38442779 C477.266737,9.56698686 476.280622,11.0673065 474.607788,11.7879719 C474.38185,11.8848026 474.31507,12.5253323 474.464768,12.7546096 C474.651195,13.0395368 474.913862,12.970531 475.159278,12.8614573 C476.039102,12.4724649 476.911135,12.0656646 477.792628,11.6805677 C478.398655,11.4167875 478.784308,11.0033092 478.899503,10.3293896 C478.987987,9.81407214 479.139911,9.30932811 479.232846,8.92868321 M402.637521,7.36492274 C398.191656,7.47622242 393.744677,7.53242876 389.300481,7.68713531 C383.168425,7.90083069 377.039152,8.19410534 370.908209,8.43451264 C366.731132,8.59867967 362.552942,8.73669127 358.375309,8.86524239 C358.037514,8.87525936 357.662435,8.77675915 357.365821,8.61704411 C357.177724,8.51576141 357.011888,8.21024379 357.000758,7.98764444 C356.989071,7.7583671 357.113727,7.42725056 357.291807,7.30537742 C357.568943,7.11561147 357.937345,6.98706034 358.274583,6.9675829 C361.648632,6.78226893 365.022682,6.59027699 368.398958,6.46673435 C376.930635,6.15453875 385.462868,5.84234316 393.997327,5.59915336 C399.774893,5.43442984 405.555799,5.37265852 411.335591,5.29419225 C415.337927,5.23909891 419.34082,5.2062655 423.343713,5.21183049 C431.615505,5.22351695 439.891193,5.14004219 448.159646,5.33648612 C454.912754,5.49675766 461.671983,5.72659149 468.405613,6.36155615 C469.378373,6.45282189 470.345567,6.60641544 471.317213,6.71103714 C471.937709,6.77837344 472.298876,6.45115239 472.319467,5.77834584 C472.358978,4.44441921 472.36343,3.11049258 472.395707,1.77656595 C472.404054,1.42430247 472.444122,1.07036949 472.503668,0.7231145 C472.566552,0.354712568 473.138076,-0.0609917263 473.513712,0.00745757526 C473.944442,0.0859238478 474.388528,0.169955104 474.785867,0.343582601 C476.658484,1.16386122 478.528876,1.99026133 480.37812,2.8611813 C482.788871,3.99755101 485.181814,5.1734321 487.576426,6.3454177 C487.972097,6.53907914 488.351072,6.77892994 488.708901,7.03714519 C489.084537,7.3092729 489.098449,8.20189632 488.740064,8.48793649 C488.465154,8.70719685 488.176888,8.92701371 487.86191,9.07671178 C484.492312,10.6838791 481.114924,12.2743515 477.7431,13.8753974 C476.940629,14.2560423 476.160418,14.684546 475.3496,15.044044 C474.86656,15.2588524 474.349573,15.4063244 473.836481,15.5404405 C473.325059,15.6728872 472.675069,15.3000332 472.597159,14.7908372 C472.475843,14.0050615 472.399602,13.2081558 472.365656,12.4134761 C472.323919,11.4384909 472.368438,10.4596103 472.328371,9.4840686 C472.312789,9.11455367 472.071825,8.81237505 471.671146,8.7595077 C470.085682,8.5508208 468.502444,8.2775801 466.909189,8.17963638 C462.826717,7.92921211 458.73701,7.80233047 454.654538,7.54968021 C445.235803,6.9659134 435.805938,7.12507194 426.379412,7.07220459 C420.77603,7.04048418 415.172647,7.1367584 408.610975,7.18239127 C407.258684,7.22412865 404.948102,7.30704691 402.637521,7.36492274 Z" id="Fill-61-Copy" transform="translate(423.000000, 7.783687) scale(1, -1) translate(-423.000000, -7.783687) "></path>
                </g>
            </g>
        </g>
    </g>
</svg>