<?xml version="1.0" encoding="UTF-8"?>
<svg width="108px" height="102px" viewBox="0 0 108 102" version="1.1" xmlns="http://www.w3.org/2000/svg" xmlns:xlink="http://www.w3.org/1999/xlink">
    <!-- Generator: Sketch 43.1 (39012) - http://www.bohemiancoding.com/sketch -->
    <title>Handshake</title>
    <desc>Created with Sketch.</desc>
    <defs></defs>
    <g id="Page-1" stroke="none" stroke-width="1" fill="none" fill-rule="evenodd">
        <g id="Desktop-Copy-11" transform="translate(-459.000000, -1527.000000)" stroke="#E4002B" stroke-width="2" fill="#FFFFFF">
            <path d="M555.030581,1600.34428 C552.556483,1602.81962 548.5445,1602.8346 546.084133,1600.45412 C546.006739,1600.36924 545.93309,1600.27936 545.850704,1600.19823 L545.844462,1600.20572 L531.783796,1584.27387 L530.85008,1585.10273 L544.693545,1600.74497 L545.083009,1601.22681 C545.089251,1601.23305 545.097989,1601.2368 545.10423,1601.24429 C546.248906,1602.46511 546.975407,1604.12657 547.08276,1605.86169 C547.197602,1607.72288 546.614653,1609.38934 545.43877,1610.56397 C544.206714,1611.79853 542.591435,1612.45387 540.911246,1612.41767 C539.272249,1612.38772 537.735612,1611.66746 536.574708,1610.43415 C536.21021,1609.43677 535.648482,1608.50056 534.854574,1607.70665 L520.92997,1590.68755 L519.963799,1591.47772 L533.930844,1608.543 C536.429908,1611.04207 536.429908,1615.10897 533.930844,1617.60804 C532.720009,1618.81887 531.110971,1619.48546 529.398326,1619.48546 C527.686929,1619.48546 526.077892,1618.81887 524.902009,1617.64673 L521.038571,1613.07926 C520.68281,1612.53002 520.278366,1612.00324 519.767818,1611.53639 L519.749094,1611.55636 L518.318561,1609.86493 C518.052677,1608.18225 517.235051,1606.64811 515.956808,1605.48221 C514.008238,1603.70341 511.424291,1603.18412 509.078766,1603.84197 C510.74148,1600.96093 510.370739,1597.21857 507.909124,1594.75696 C506.484833,1593.33391 504.592435,1592.54999 502.578953,1592.54999 C502.009736,1592.54999 501.453001,1592.6199 500.911246,1592.74098 C502.179502,1591.35039 502.882286,1589.56784 502.882286,1587.67295 C502.882286,1585.66072 502.098364,1583.76832 500.674072,1582.34527 C499.251029,1580.92223 497.359879,1580.13831 495.346398,1580.13831 C493.41031,1580.13831 491.591561,1580.8698 490.192235,1582.18799 C490.750218,1579.7426 490.098614,1577.07502 488.198726,1575.17513 C485.355136,1572.33154 480.798901,1572.26663 477.845462,1574.92797 L477.830483,1574.91299 L477.690675,1575.05405 C477.64324,1575.09899 477.588316,1575.12895 477.542129,1575.17513 L477.55586,1575.18886 L470.95244,1581.80976 L466.635876,1576.43964 C463.110723,1571.39034 461.248284,1565.4535 461.248284,1559.272 C461.248284,1542.71726 474.716015,1529.24828 491.270752,1529.24828 C498.983896,1529.24828 506.275121,1532.15678 511.869928,1537.43827 L492.937211,1558.37199 L493.327924,1558.79141 C493.61378,1559.09849 500.423167,1566.27237 507.303707,1563.25403 C510.534264,1561.83473 513.005866,1559.33566 515.186617,1557.13119 C517.513418,1554.77818 519.525651,1552.74597 521.800024,1552.59493 C523.379103,1552.48883 526.060416,1553.06803 529.173635,1553.73836 C535.226562,1555.03907 542.759954,1556.65685 547.152664,1554.27887 L546.558481,1553.18162 C542.568966,1555.33991 535.285231,1553.77456 529.435775,1552.51754 C526.230182,1551.82724 523.450255,1551.22931 521.717637,1551.34914 C518.968917,1551.53139 516.700785,1553.82574 514.299088,1556.25365 C512.196978,1558.37823 509.814005,1560.78742 506.800648,1562.1106 C501.612782,1564.38996 496.157782,1559.76882 494.647359,1558.34203 L513.792285,1537.16989 C519.34465,1532.06191 526.560977,1529.24828 534.111845,1529.24828 C550.666582,1529.24828 564.134313,1542.71726 564.134313,1559.272 C564.134313,1567.2323 561.051053,1574.73074 555.491198,1580.35426 L550.75521,1584.39121 L525.908125,1555.50843 L524.961926,1556.32231 L555.033078,1591.27674 L555.030581,1591.27924 C556.241416,1592.49007 556.909248,1594.10036 556.909248,1595.81176 C556.909248,1597.5244 556.241416,1599.13344 555.030581,1600.34428 L555.030581,1600.34428 Z M519.405816,1621.13694 C517.112719,1623.64848 513.246785,1623.85819 510.68281,1621.66621 L516.448632,1616.12882 C517.543377,1614.92797 518.198726,1613.44002 518.365996,1611.85345 L520.031206,1613.8195 C521.464236,1616.10635 521.301959,1619.0548 519.405816,1621.13694 L519.405816,1621.13694 Z M505.720883,1624.70203 C503.3816,1627.26351 499.398327,1627.44701 496.838097,1625.11147 C495.619772,1624.0005 494.940706,1622.53252 494.928223,1620.97715 C494.91574,1619.43927 495.542379,1617.89764 496.690799,1616.63313 L506.45737,1606.86531 C508.802895,1604.31756 512.598926,1604.11035 515.115465,1606.40469 C516.357507,1607.53689 517.084008,1609.08351 517.161402,1610.7612 C517.238796,1612.43889 516.658344,1614.04668 515.554861,1615.25752 L505.720883,1624.70203 Z M486.624641,1616.04144 C484.070652,1613.48745 483.917114,1609.15965 486.283859,1606.79416 L498.133815,1595.63949 C499.320933,1594.45238 500.90126,1593.79828 502.578953,1593.79828 C504.259143,1593.79828 505.838222,1594.45238 507.026588,1595.63949 C509.478217,1598.09112 509.478217,1602.08064 507.026588,1604.53102 L495.517413,1616.04144 C494.330295,1617.22856 492.751216,1617.88266 491.071027,1617.88266 C489.390837,1617.88266 487.811758,1617.22856 486.624641,1616.04144 L486.624641,1616.04144 Z M475.554862,1606.82536 C473.171888,1604.44239 473.26551,1600.6164 475.763325,1598.11734 L475.884409,1597.99875 C476.159031,1597.79154 476.439895,1597.59181 476.689552,1597.34091 L484.88703,1589.14343 L490.90126,1583.22781 C492.088378,1582.04069 493.667457,1581.38659 495.346398,1581.38659 C497.025339,1581.38659 498.604418,1582.03944 499.791536,1583.22781 C500.978654,1584.41493 501.634002,1585.99401 501.634002,1587.67295 C501.634002,1589.35314 500.978654,1590.93097 499.801522,1592.1106 L484.446386,1606.82536 C483.259268,1608.01373 481.680189,1608.66658 480.001248,1608.66658 C478.321058,1608.66658 476.741979,1608.01373 475.554862,1606.82536 L475.554862,1606.82536 Z M466.915491,1596.45837 C465.728373,1595.27125 465.074273,1593.69217 465.074273,1592.01323 C465.074273,1590.47909 465.64349,1589.04481 466.640869,1587.90014 L478.579453,1575.93159 C481.042316,1573.62227 484.910747,1573.65472 487.31619,1576.05767 C489.767819,1578.5093 489.767819,1582.49756 487.31619,1584.94919 L484.008238,1588.25715 L475.00312,1597.11621 C472.547747,1598.86756 469.118712,1598.66034 466.915491,1596.45837 L466.915491,1596.45837 Z M556.06416,1590.56273 L551.569091,1585.33741 L556.340031,1581.26801 C562.172012,1575.37486 565.382597,1567.56185 565.382597,1559.272 C565.382597,1542.02821 551.355634,1528 534.111845,1528 C526.24641,1528 518.730495,1530.93097 512.909748,1536.2886 L512.706278,1536.51329 C506.883035,1531.02459 499.294719,1528 491.270752,1528 C474.026963,1528 460,1542.02821 460,1559.272 C460,1565.71065 461.941081,1571.8934 465.638497,1577.18737 L470.066159,1582.69854 L466.061665,1586.71302 L466.032955,1586.68431 C464.608663,1588.10735 463.825989,1589.99975 463.825989,1592.01323 C463.825989,1594.02546 464.608663,1595.91786 466.032955,1597.34091 C467.502184,1598.81013 469.432031,1599.54413 471.361877,1599.54413 C472.073399,1599.54413 472.776183,1599.41056 473.465235,1599.21083 C472.000998,1602.01448 472.37049,1605.40731 474.672325,1607.7079 C476.095369,1609.13219 477.987766,1609.91487 480.001248,1609.91487 C481.319435,1609.91487 482.583947,1609.57284 483.698664,1608.94245 C482.942204,1611.6325 483.616277,1614.79815 485.742104,1616.92398 C487.165147,1618.34702 489.057545,1619.13094 491.071027,1619.13094 C492.143302,1619.13094 493.178129,1618.90251 494.129322,1618.47934 C493.83223,1619.29197 493.673698,1620.13831 493.681188,1620.98839 C493.696167,1622.89452 494.518786,1624.68705 495.996754,1626.03395 C497.442266,1627.35214 499.266009,1628.00125 501.079765,1628 C503.11946,1628 505.147921,1627.18112 506.614654,1625.57209 L509.772811,1622.53876 C511.202096,1623.80077 512.978404,1624.4324 514.754711,1624.4324 C516.801896,1624.4324 518.84284,1623.60604 520.327049,1621.97828 C521.785044,1620.37923 522.385469,1618.35451 522.199475,1616.38347 L523.98452,1618.49057 C525.430033,1619.93733 527.352389,1620.73374 529.398326,1620.73374 C531.443015,1620.73374 533.367868,1619.93733 534.81338,1618.49057 C536.489825,1616.81288 537.19136,1614.546 536.990387,1612.359 C538.148794,1613.11796 539.485706,1613.5249 540.888776,1613.5249 L541.029833,1613.5249 C543.005865,1613.5249 544.880787,1612.81712 546.321307,1611.37536 C547.753088,1609.94482 548.465858,1608.01373 548.328547,1605.78929 C548.267381,1604.7969 548.028959,1603.82324 547.650729,1602.91574 C548.561976,1603.28024 549.530644,1603.46498 550.498064,1603.46498 C552.459117,1603.46498 554.421419,1602.71976 555.913118,1601.22681 C557.359878,1599.78005 558.157532,1597.85769 558.157532,1595.81176 C558.157532,1593.84197 557.411058,1591.98951 556.06416,1590.56273 L556.06416,1590.56273 Z" id="Handshake"></path>
        </g>
    </g>
</svg>