<?xml version="1.0" encoding="UTF-8"?>
<svg width="115px" height="102px" viewBox="0 0 115 102" version="1.1" xmlns="http://www.w3.org/2000/svg" xmlns:xlink="http://www.w3.org/1999/xlink">
    <!-- Generator: Sketch 43.1 (39012) - http://www.bohemiancoding.com/sketch -->
    <title>Chart Up</title>
    <desc>Created with Sketch.</desc>
    <defs></defs>
    <g id="Page-1" stroke="none" stroke-width="1" fill="none" fill-rule="evenodd">
        <g id="Desktop-Copy-11" transform="translate(-827.000000, -1527.000000)" stroke="#E4002B" stroke-width="2" fill="#FFFFFF">
            <path d="M914.587073,1626.78297 C901.228912,1626.78297 890.362019,1615.91607 890.362019,1602.55791 C890.362019,1602.25609 890.368104,1601.95426 890.379057,1601.65244 C890.517799,1597.87112 891.502379,1594.27722 893.30724,1590.96932 C895.878832,1586.26062 899.997274,1582.48781 904.903136,1580.34705 C907.962759,1579.01075 911.219541,1578.33408 914.587073,1578.33408 C927.945233,1578.33408 938.810909,1589.20097 938.810909,1602.55791 C938.810909,1615.91607 927.945233,1626.78297 914.587073,1626.78297 L914.587073,1626.78297 Z M914.409386,1529.21703 L914.409386,1577.12556 C910.938406,1577.1499 907.575742,1577.85213 904.416323,1579.23103 C901.297066,1580.59289 898.489369,1582.58883 896.153882,1585.04358 L896.153882,1529.21703 L914.409386,1529.21703 Z M866.945075,1552.34067 L885.200579,1552.34067 L885.200579,1614.40939 L866.945075,1614.40939 L866.945075,1552.34067 Z M838.953302,1573.03024 L857.208806,1573.03024 L857.208806,1614.40939 L838.953302,1614.40939 L838.953302,1573.03024 Z M915.626419,1577.16937 L915.626419,1528 L894.936848,1528 L894.936848,1586.41761 L894.945367,1586.41761 C893.92671,1587.6529 893.010284,1588.9746 892.239902,1590.38636 C890.343763,1593.86099 889.308068,1597.63623 889.162024,1601.60741 C889.15107,1601.92262 889.144985,1602.24027 889.144985,1602.55791 C889.144985,1606.837 890.218409,1610.8666 892.092641,1614.40939 L886.417613,1614.40939 L886.417613,1551.12364 L865.728042,1551.12364 L865.728042,1614.40939 L858.42584,1614.40939 L858.42584,1571.81321 L837.736269,1571.81321 L837.736269,1614.40939 L828,1614.40939 L828,1615.62642 L837.736269,1615.62642 L858.42584,1615.62642 L865.728042,1615.62642 L886.417613,1615.62642 L892.502781,1615.62642 L892.502781,1615.14204 C896.891404,1622.80935 905.136807,1628 914.587073,1628 C928.614602,1628 940.027943,1616.58666 940.027943,1602.55791 C940.027943,1588.88089 929.170786,1577.72069 915.626419,1577.16937 L915.626419,1577.16937 Z M926.58033,1591.41767 L926.58033,1591.28623 L926.58033,1590.0692 L905.890759,1590.0692 L905.890759,1591.28623 L925.363297,1591.28623 L925.363297,1591.41037 L902.48915,1614.28452 L903.349593,1615.14496 L925.363297,1593.13126 L925.363297,1609.54174 L926.58033,1609.54174 L926.58033,1591.91422 L926.828605,1591.66595 L926.58033,1591.41767 Z" id="Chart-Up"></path>
        </g>
    </g>
</svg>