<?xml version="1.0" encoding="UTF-8"?>
<svg width="87px" height="100px" viewBox="0 0 87 100" version="1.1" xmlns="http://www.w3.org/2000/svg" xmlns:xlink="http://www.w3.org/1999/xlink">
    <!-- Generator: Sketch 43.1 (39012) - http://www.bohemiancoding.com/sketch -->
    <title>smiling-girl</title>
    <desc>Created with Sketch.</desc>
    <defs></defs>
    <g id="Page-1" stroke="none" stroke-width="1" fill="none" fill-rule="evenodd">
        <g id="Desktop-Copy-11" transform="translate(-98.000000, -1528.000000)" fill-rule="nonzero" fill="#E4002B">
            <g id="smiling-girl" transform="translate(98.000000, 1528.000000)">
                <path d="M50.1101896,75.4777251 C46.493128,79.0947867 40.6078199,79.0947867 36.9909953,75.4777251 C36.2507109,74.7374408 35.0504739,74.7374408 34.3101896,75.4777251 C33.5696682,76.2180095 33.5696682,77.4182464 34.3101896,78.1585308 C36.8578199,80.7061611 40.2042654,81.9798578 43.5507109,81.9798578 C46.8971564,81.9798578 50.2436019,80.7061611 52.7912322,78.1585308 C53.5317536,77.4182464 53.5317536,76.2180095 52.7912322,75.4777251 C52.0509479,74.7374408 50.8504739,74.7374408 50.1101896,75.4777251 Z" id="Shape"></path>
                <path d="M86.4509479,94.2850711 C82.0101896,89.3675355 81.8222749,76.8372038 82.3478673,63.8722749 C84.2822275,62.0554502 85.4940758,59.4777251 85.4940758,56.6208531 C85.4940758,54.1120853 84.5590047,51.8189573 83.0218009,50.0665877 C83.6677725,36.842891 84.0104265,27.999763 79.8158768,19.8343602 C76.9542654,14.2627962 72.3239336,9.60758294 66.0537915,5.99810427 C58.7459716,1.79146919 50.4099526,-0.273459716 41.9459716,0.0291469194 C34.5113744,0.294075829 27.5898104,3.75781991 22.8168246,9.56943128 C16.6537915,9.93601896 11.0473934,13.2900474 8.03104265,18.4739336 C7.77203791,18.9189573 7.52156398,19.3765403 7.28649289,19.8341232 C3.08957346,28.0040284 3.43199052,36.8464455 4.07796209,50.0687204 C2.54170616,51.8208531 1.60758294,54.1130332 1.60758294,56.6208531 C1.60758294,59.4767773 2.81848341,62.0537915 4.75189573,63.8706161 C5.27748815,76.8364929 5.08957346,89.3677725 0.648815166,94.2853081 C0.228909953,94.750237 0.0658767773,95.392891 0.213270142,96.0018957 C0.360663507,96.6109005 0.799526066,97.1078199 1.38554502,97.3293839 C6.38388626,99.2180095 11.2246445,99.8933649 15.5936019,99.8933649 C20.1322275,99.8933649 24.1616114,99.163981 27.3248815,98.3085308 C32.821327,96.8222749 36.6981043,94.736019 38.0208531,93.9661137 C39.82109,94.2627962 41.6677725,94.4199052 43.5507109,94.4199052 C45.4331754,94.4199052 47.2793839,94.2630332 49.0791469,93.9663507 C50.4021327,94.7364929 54.278673,96.8222749 59.7746445,98.3085308 C63.9943128,99.4495261 67.9061611,99.8957346 71.4450237,99.8957346 C77.3400474,99.8957346 82.1990521,98.657109 85.713981,97.32891 C86.300237,97.107346 86.7388626,96.6106635 86.8862559,96.0014218 C87.0338863,95.392654 86.8708531,94.750237 86.4509479,94.2850711 Z M77.4369668,60.5338863 L77.4369668,51.1227488 C77.4374408,51.0978673 77.4374408,51.0727488 77.4369668,51.0476303 L77.4369668,50.7592417 C79.9092417,51.5609005 81.7023697,53.8848341 81.7023697,56.6206161 C81.7023697,59.3781991 79.8812796,61.7184834 77.378436,62.5018957 C77.4158768,61.8504739 77.4369668,61.1947867 77.4369668,60.5338863 Z M10.6590047,21.5665877 C10.863981,21.1677725 11.0822275,20.7687204 11.3080569,20.3808057 C13.8049763,16.0895735 18.5805687,13.3872038 23.77109,13.3281991 C23.7770142,13.3281991 23.7912322,13.3279621 23.7973934,13.3277251 C24.3732227,13.3156398 24.9120853,13.042654 25.2625592,12.585782 C29.3537915,7.24905213 35.4838863,4.05331754 42.0810427,3.81800948 C49.8343602,3.54146919 57.4701422,5.43175355 64.1618483,9.28388626 C69.7886256,12.5229858 73.9206161,16.6554502 76.442891,21.5665877 C79.800237,28.1021327 79.899763,35.2113744 79.3492891,47.4267773 C78.7398104,47.1734597 78.1,46.9798578 77.4369668,46.8511848 L77.4369668,44.9234597 C77.4369668,43.8765403 76.5881517,43.0277251 75.5412322,43.0277251 C74.4943128,43.0277251 73.6454976,43.8765403 73.6454976,44.9234597 L73.6454976,49.22891 C47.5319905,49.5078199 33.3954976,36.9298578 29.6234597,32.9945498 C29.1796209,32.5315166 28.5317536,32.3244076 27.9023697,32.4436019 C27.2722749,32.5627962 26.7452607,32.9924171 26.5014218,33.585545 C23.7466825,40.2864929 18.9336493,43.7924171 11.3549763,44.6184834 C10.393128,44.7232227 9.66469194,45.535545 9.66469194,46.5030806 L9.66469194,46.8509479 C9.00094787,46.9796209 8.36042654,47.1734597 7.75047393,47.4272512 C7.19976303,35.2146919 7.3,28.1056872 10.6590047,21.5665877 Z M9.72298578,62.5021327 C7.22014218,61.7187204 5.39905213,59.378436 5.39905213,56.6208531 C5.39905213,53.8848341 7.19218009,51.5609005 9.66445498,50.7594787 L9.66445498,60.5338863 C9.66445498,61.1947867 9.68554502,61.8504739 9.72298578,62.5021327 Z M5.09194313,94.5836493 C8.47251185,88.8135071 9.05876777,79.221327 8.62890995,66.1322275 C9.13222749,66.2876777 9.65308057,66.4023697 10.1867299,66.4763033 C12.342891,78.6154028 20.9848341,88.5390995 32.3893365,92.5291469 C26.9042654,94.8893365 16.5227488,98.0168246 5.09194313,94.5836493 Z M43.5507109,90.628436 C26.9563981,90.628436 13.4559242,77.1279621 13.4559242,60.5336493 L13.4561611,48.1575829 C20.5658768,46.9876777 25.6277251,43.4876777 28.8364929,37.5156398 C31.5677725,40.007346 35.9838863,43.4246445 42.2075829,46.4196682 C51.5654028,50.9229858 62.1334123,53.1440758 73.6454976,53.02109 L73.6454976,60.5336493 C73.6454976,77.1281991 60.1450237,90.628436 43.5507109,90.628436 Z M60.8890995,94.6819905 C58.4582938,94.0322275 56.3609005,93.2471564 54.7052133,92.5315166 C66.1132701,88.5433649 74.7582938,78.6180095 76.9149289,66.4763033 C77.4481043,66.4023697 77.9682464,66.2879147 78.47109,66.1327014 C78.0409953,79.2234597 78.6270142,88.8156398 82.0092417,94.585545 C75.314218,96.6080569 68.2218009,96.6421801 60.8890995,94.6819905 Z" id="Shape"></path>
                <path d="M20.8919431,54.9156398 C20.1514218,55.6559242 20.1514218,56.8561611 20.8919431,57.5964455 C21.6322275,58.3367299 22.8324645,58.3367299 23.5727488,57.5964455 C24.7879147,56.3817536 26.7646919,56.3815166 27.9798578,57.5964455 C28.35,57.9665877 28.8350711,58.1516588 29.3203791,58.1516588 C29.8056872,58.1516588 30.2907583,57.9665877 30.6609005,57.5964455 C31.4014218,56.8561611 31.4014218,55.6559242 30.6609005,54.9156398 C27.9677725,52.2222749 23.5850711,52.2220379 20.8919431,54.9156398 Z" id="Shape"></path>
                <path d="M66.2097156,57.5964455 C66.950237,56.8561611 66.950237,55.6559242 66.2097156,54.9156398 C63.5163507,52.2222749 59.1338863,52.2222749 56.4407583,54.9156398 C55.700237,55.6559242 55.700237,56.8561611 56.4407583,57.5964455 C57.1810427,58.3367299 58.3812796,58.3367299 59.121564,57.5964455 C60.3367299,56.3815166 62.3137441,56.3817536 63.528673,57.5964455 C63.8988152,57.9665877 64.3838863,58.1516588 64.8691943,58.1516588 C65.3545024,58.1516588 65.8395735,57.9665877 66.2097156,57.5964455 Z" id="Shape"></path>
            </g>
        </g>
    </g>
</svg>