<?xml version="1.0" encoding="UTF-8"?>
<svg width="145px" height="17px" viewBox="0 0 145 17" version="1.1" xmlns="http://www.w3.org/2000/svg" xmlns:xlink="http://www.w3.org/1999/xlink">
    <!-- Generator: Sketch 43.1 (39012) - http://www.bohemiancoding.com/sketch -->
    <title>Fill 2</title>
    <desc>Created with Sketch.</desc>
    <defs></defs>
    <g id="Page-1" stroke="none" stroke-width="1" fill="none" fill-rule="evenodd">
        <g id="Desktop-Copy-11" transform="translate(-30.000000, -2984.000000)" fill="#E4002B">
            <g id="Group-17" transform="translate(0.000000, 2957.000000)">
                <g id="Group-16" transform="translate(30.000000, 26.000000)">
                    <path d="M58.9467326,1.03619355 L55.8031544,1.03619355 C55.4552637,1.03619355 55.182467,1.38716129 55.182467,1.69864516 L55.182467,10.622 C55.182467,10.8961935 54.9107627,11.013 54.7174294,10.7791129 C54.5620527,10.5455 48.7789831,3.37232258 47.9644162,2.39920968 C47.1495763,1.46530645 46.4518832,1.03619355 45.1722787,1.03619355 L42.9191808,1.03619355 C42.4915537,1.03619355 42.3375424,1.3101129 42.3375424,1.66025806 L42.3375424,16.8152097 C42.3375424,17.2062097 42.531968,17.440371 42.9191808,17.440371 L46.1009887,17.440371 C46.5673917,17.440371 46.7596328,17.2424032 46.7596328,16.8152097 L46.7596328,8.40322581 C46.7596328,8.16741935 46.9925612,8.0506129 47.2271281,8.28641935 C47.4215537,8.51729032 52.932919,15.3737742 53.7838041,16.2712097 C54.6778343,17.2851774 55.1054614,17.440371 56.4249341,17.440371 L58.9467326,17.440371 C59.3740866,17.440371 59.6081073,17.1697419 59.6081073,16.8966452 L59.6081073,1.66025806 C59.6081073,1.26953226 59.3740866,1.03619355 58.9467326,1.03619355 L58.9467326,1.03619355 Z M6.16973635,6.88008065 C5.16047081,6.80385484 4.73502825,6.53020968 4.73502825,5.94837097 C4.73502825,5.51706452 5.0444162,5.04983871 5.85925612,5.04983871 L15.2127119,5.04983871 C15.6378814,5.04983871 15.9478154,4.77783871 15.9478154,4.3873871 L15.9478154,1.81764516 C15.9478154,1.26953226 15.4434557,1 15.0972034,1 L6.28606403,1 C4.03405838,1 2.52152542,1.50616129 1.51253296,2.32298387 C0.542043315,3.17874194 0,4.1153871 0,5.79098387 C0,8.36264516 1.51253296,10.272129 5.54822976,10.622 L10.592919,11.0511129 C11.6415066,11.1292581 12.0300847,11.5964839 12.0300847,12.1832581 C12.0300847,12.7272581 11.7185122,13.232871 10.6349718,13.232871 L1.24000942,13.232871 C0.736195857,13.232871 0.348709981,13.5827419 0.348709981,13.8964194 L0.348709981,16.6989516 C0.348709981,17.1697419 0.736195857,17.4014355 1.1239548,17.4014355 L10.4375424,17.4014355 C14.3962335,17.4014355 16.7252448,15.3370323 16.7252448,12.2216452 C16.7252448,9.37551613 14.9027778,7.46877419 10.2433898,7.15454839 L6.16973635,6.88008065 Z M125.734661,1 L122.512166,1 C122.126045,1 121.851883,1.2338871 121.851883,1.62187097 L121.851883,7.15454839 L114.673154,7.15454839 L114.673154,1.73922581 C114.673154,1.26953226 114.440772,1 114.129746,1 L110.792834,1 C110.443851,1 110.212561,1.35041935 110.212561,1.62187097 L110.212561,16.8152097 C110.212561,17.1697419 110.4829,17.4014355 110.832156,17.4014355 L114.052467,17.4014355 C114.440772,17.4014355 114.673154,17.1294355 114.673154,16.8152097 L114.673154,11.2871935 L121.851883,11.2871935 L121.851883,16.7792903 C121.851883,17.1294355 122.008625,17.4014355 122.473936,17.4014355 L125.695066,17.4014355 C126.083098,17.4014355 126.317938,17.1294355 126.317938,16.7792903 L126.317938,1.62187097 C126.317938,1.26953226 126.083098,1 125.734661,1 L125.734661,1 Z M36.7112147,1 L33.3740301,1 C32.9076271,1 32.7907533,1.153 32.7907533,1.66025806 L32.7907533,10.6625806 C32.7907533,12.881629 31.6269303,13.5827419 29.6463559,13.5827419 L28.4058004,13.5827419 C26.5044162,13.5827419 25.1461676,13.1155161 25.1461676,10.7028871 L25.1461676,1.66025806 C25.1461676,1.19330645 24.9533804,1 24.5249341,1 L21.1874765,1 C20.7994444,1 20.5670621,1.153 20.5670621,1.66025806 L20.5670621,11.6354194 C20.5670621,15.9594516 23.7881921,17.828629 28.0559981,17.828629 L29.7255461,17.828629 C34.1107721,17.828629 37.3308098,16.0381452 37.3308098,11.6354194 L37.3308098,1.544 C37.3308098,1.153 37.1374765,1 36.7112147,1 L36.7112147,1 Z M104.505951,9.06375806 L101.634623,9.06375806 C101.247957,9.06375806 100.935019,9.41417742 100.935019,9.76404839 L100.935019,13.3129355 L97.3665443,13.3129355 C94.4548023,13.3129355 93.87371,11.6354194 93.87371,9.57074194 L93.87371,8.78956452 C93.87371,6.84443548 94.5716761,5.04983871 97.3665443,5.04983871 L104.505951,5.04983871 C104.9729,5.04983871 105.16596,4.74 105.16596,4.468 L105.16596,1.5823871 C105.16596,1.2338871 104.933305,1 104.505951,1 L97.1325235,1 C92.0856497,1 89.3721563,3.80308065 89.3721563,8.36264516 L89.3721563,10.3502742 C89.3721563,14.5978065 91.738032,17.4014355 96.820951,17.4014355 L104.467994,17.4014355 C105.088409,17.4014355 105.16596,16.9322903 105.16596,16.4647903 L105.16596,9.80490323 C105.16596,9.41417742 105.013861,9.06375806 104.505951,9.06375806 L104.505951,9.06375806 Z M144.087947,1 L130.584652,1 C130.158663,1 130.003286,1.2338871 130.003286,1.5823871 L130.003286,4.50391935 C130.003286,4.93275806 130.274171,5.08987097 130.584652,5.08987097 L135.046064,5.08987097 L135.046064,16.8152097 C135.046064,17.1697419 135.202806,17.4014355 135.667298,17.4014355 L138.888427,17.4014355 C139.355104,17.4014355 139.508842,17.2062097 139.508842,16.8152097 L139.508842,5.08987097 L143.971073,5.08987097 C144.360744,5.08987097 144.631083,4.77783871 144.631083,4.468 L144.631083,1.5823871 C144.631083,1.2338871 144.399793,1 144.087947,1 L144.087947,1 Z M76.9152637,13.232871 L69.035565,13.232871 L69.035565,1.62187097 C69.035565,1.26953226 68.9200565,1 68.4156968,1 L65.2721186,1 C64.7661205,1 64.6522505,1.2338871 64.6522505,1.62187097 L64.6522505,16.8152097 C64.6522505,17.2062097 64.8846328,17.4014355 65.2330697,17.4014355 L76.9152637,17.4014355 C77.3407062,17.4014355 77.4960829,17.2062097 77.4960829,16.8152097 L77.4960829,13.8169032 C77.4960829,13.4659355 77.2626083,13.232871 76.9152637,13.232871 L76.9152637,13.232871 Z M84.4063842,1 L81.0686535,1 C80.7177589,1 80.4856497,1.35041935 80.4856497,1.62187097 L80.4856497,16.8152097 C80.4856497,17.1697419 80.7966761,17.4014355 81.1445669,17.4014355 L84.2897834,17.4014355 C84.7130414,17.4014355 84.9839266,17.1294355 84.9839266,16.8152097 L84.9839266,1.73922581 C84.9839266,1.26953226 84.7130414,1 84.4063842,1 L84.4063842,1 Z" id="Fill-2"></path>
                </g>
            </g>
        </g>
    </g>
</svg>