<?xml version="1.0" encoding="UTF-8"?>
<svg width="145px" height="17px" viewBox="0 0 145 17" version="1.1" xmlns="http://www.w3.org/2000/svg" xmlns:xlink="http://www.w3.org/1999/xlink">
    <!-- Generator: Sketch 43.1 (39012) - http://www.bohemiancoding.com/sketch -->
    <title>Group</title>
    <desc>Created with Sketch.</desc>
    <defs></defs>
    <g id="Page-1" stroke="none" stroke-width="1" fill="none" fill-rule="evenodd">
        <g id="Desktop-Copy-11" transform="translate(-30.000000, -47.000000)" fill="#FFFFFF">
            <g id="Group" transform="translate(30.000000, 47.000000)">
                <g id="LOGO_WHITE_NEW_2012">
                    <path d="M59.2077872,0.191387097 L56.064209,0.191387097 C55.7163183,0.191387097 55.4435217,0.542354839 55.4435217,0.85383871 L55.4435217,9.77719355 C55.4435217,10.0513871 55.1718173,10.1681935 54.978484,9.93430645 C54.8231073,9.70069355 49.0400377,2.52751613 48.2254708,1.55440323 C47.4106309,0.6205 46.7129379,0.191387097 45.4333333,0.191387097 L43.1802354,0.191387097 C42.7526083,0.191387097 42.598597,0.465306452 42.598597,0.815451613 L42.598597,15.9704032 C42.598597,16.3614032 42.7930226,16.5955645 43.1802354,16.5955645 L46.3620433,16.5955645 C46.8284463,16.5955645 47.0206874,16.3975968 47.0206874,15.9704032 L47.0206874,7.55841935 C47.0206874,7.3226129 47.2536158,7.20580645 47.4881827,7.4416129 C47.6826083,7.67248387 53.1939736,14.5289677 54.0448588,15.4264032 C54.9388889,16.440371 55.366516,16.5955645 56.6859887,16.5955645 L59.2077872,16.5955645 C59.6351412,16.5955645 59.869162,16.3249355 59.869162,16.0518387 L59.869162,0.815451613 C59.869162,0.424725806 59.6351412,0.191387097 59.2077872,0.191387097 L59.2077872,0.191387097 Z M6.43079096,6.03527419 C5.42152542,5.95904839 4.99608286,5.68540323 4.99608286,5.10356452 C4.99608286,4.67225806 5.30547081,4.20503226 6.12031073,4.20503226 L15.4737665,4.20503226 C15.898936,4.20503226 16.2088701,3.93303226 16.2088701,3.54258065 L16.2088701,0.97283871 C16.2088701,0.424725806 15.7045104,0.155193548 15.358258,0.155193548 L6.54711864,0.155193548 C4.29511299,0.155193548 2.78258004,0.661354839 1.77358757,1.47817742 C0.803097928,2.33393548 0.261054614,3.27058065 0.261054614,4.94617742 C0.261054614,7.51783871 1.77358757,9.42732258 5.80928437,9.77719355 L10.8539736,10.2063065 C11.9025612,10.2844516 12.2911394,10.7516774 12.2911394,11.3384516 C12.2911394,11.8824516 11.9795669,12.3880645 10.8960264,12.3880645 L1.50106403,12.3880645 C0.997250471,12.3880645 0.609764595,12.7379355 0.609764595,13.0516129 L0.609764595,15.8541452 C0.609764595,16.3249355 0.997250471,16.556629 1.38500942,16.556629 L10.698597,16.556629 C14.6572881,16.556629 16.9862994,14.4922258 16.9862994,11.3768387 C16.9862994,8.53070968 15.1638324,6.62396774 10.5044444,6.30974194 L6.43079096,6.03527419 Z M125.995716,0.155193548 L122.77322,0.155193548 C122.3871,0.155193548 122.112938,0.389080645 122.112938,0.777064516 L122.112938,6.30974194 L114.934209,6.30974194 L114.934209,0.894419355 C114.934209,0.424725806 114.701827,0.155193548 114.3908,0.155193548 L111.053889,0.155193548 C110.704906,0.155193548 110.473616,0.505612903 110.473616,0.777064516 L110.473616,15.9704032 C110.473616,16.3249355 110.743955,16.556629 111.093211,16.556629 L114.313522,16.556629 C114.701827,16.556629 114.934209,16.284629 114.934209,15.9704032 L114.934209,10.4423871 L122.112938,10.4423871 L122.112938,15.9344839 C122.112938,16.284629 122.26968,16.556629 122.734991,16.556629 L125.956121,16.556629 C126.344153,16.556629 126.578992,16.284629 126.578992,15.9344839 L126.578992,0.777064516 C126.578992,0.424725806 126.344153,0.155193548 125.995716,0.155193548 L125.995716,0.155193548 Z M36.9722693,0.155193548 L33.6350847,0.155193548 C33.1686817,0.155193548 33.0518079,0.308193548 33.0518079,0.815451613 L33.0518079,9.81777419 C33.0518079,12.0368226 31.8879849,12.7379355 29.9074105,12.7379355 L28.666855,12.7379355 C26.7654708,12.7379355 25.4072222,12.2707097 25.4072222,9.85808065 L25.4072222,0.815451613 C25.4072222,0.3485 25.214435,0.155193548 24.7859887,0.155193548 L21.4485311,0.155193548 C21.0604991,0.155193548 20.8281168,0.308193548 20.8281168,0.815451613 L20.8281168,10.7906129 C20.8281168,15.1146452 24.0492467,16.9838226 28.3170527,16.9838226 L29.9866008,16.9838226 C34.3718267,16.9838226 37.5918644,15.1933387 37.5918644,10.7906129 L37.5918644,0.699193548 C37.5918644,0.308193548 37.3985311,0.155193548 36.9722693,0.155193548 L36.9722693,0.155193548 Z M104.767006,8.21895161 L101.895678,8.21895161 C101.509011,8.21895161 101.196073,8.56937097 101.196073,8.91924194 L101.196073,12.468129 L97.6275989,12.468129 C94.7158569,12.468129 94.1347646,10.7906129 94.1347646,8.72593548 L94.1347646,7.94475806 C94.1347646,5.99962903 94.8327307,4.20503226 97.6275989,4.20503226 L104.767006,4.20503226 C105.233955,4.20503226 105.427015,3.89519355 105.427015,3.62319355 L105.427015,0.737580645 C105.427015,0.389080645 105.19436,0.155193548 104.767006,0.155193548 L97.3935782,0.155193548 C92.3467043,0.155193548 89.6332109,2.95827419 89.6332109,7.51783871 L89.6332109,9.50546774 C89.6332109,13.753 91.9990866,16.556629 97.0820056,16.556629 L104.729049,16.556629 C105.349463,16.556629 105.427015,16.0874839 105.427015,15.6199839 L105.427015,8.96009677 C105.427015,8.56937097 105.274915,8.21895161 104.767006,8.21895161 L104.767006,8.21895161 Z M144.349002,0.155193548 L130.845706,0.155193548 C130.419718,0.155193548 130.264341,0.389080645 130.264341,0.737580645 L130.264341,3.6591129 C130.264341,4.08795161 130.535226,4.24506452 130.845706,4.24506452 L135.307119,4.24506452 L135.307119,15.9704032 C135.307119,16.3249355 135.463861,16.556629 135.928352,16.556629 L139.149482,16.556629 C139.616158,16.556629 139.769896,16.3614032 139.769896,15.9704032 L139.769896,4.24506452 L144.232128,4.24506452 C144.621798,4.24506452 144.892137,3.93303226 144.892137,3.62319355 L144.892137,0.737580645 C144.892137,0.389080645 144.660847,0.155193548 144.349002,0.155193548 L144.349002,0.155193548 Z M77.1763183,12.3880645 L69.2966196,12.3880645 L69.2966196,0.777064516 C69.2966196,0.424725806 69.1811111,0.155193548 68.6767514,0.155193548 L65.5331733,0.155193548 C65.0271751,0.155193548 64.9133051,0.389080645 64.9133051,0.777064516 L64.9133051,15.9704032 C64.9133051,16.3614032 65.1456874,16.556629 65.4941243,16.556629 L77.1763183,16.556629 C77.6017608,16.556629 77.7571375,16.3614032 77.7571375,15.9704032 L77.7571375,12.9720968 C77.7571375,12.621129 77.5236629,12.3880645 77.1763183,12.3880645 L77.1763183,12.3880645 Z M84.6674388,0.155193548 L81.3297081,0.155193548 C80.9788136,0.155193548 80.7467043,0.505612903 80.7467043,0.777064516 L80.7467043,15.9704032 C80.7467043,16.3249355 81.0577307,16.556629 81.4056215,16.556629 L84.550838,16.556629 C84.974096,16.556629 85.2449812,16.284629 85.2449812,15.9704032 L85.2449812,0.894419355 C85.2449812,0.424725806 84.974096,0.155193548 84.6674388,0.155193548 L84.6674388,0.155193548 Z" id="Fill-2-Copy"></path>
                </g>
            </g>
        </g>
    </g>
</svg>