<?xml version="1.0" encoding="UTF-8"?>
<svg width="245px" height="327px" viewBox="0 0 245 327" version="1.1" xmlns="http://www.w3.org/2000/svg" xmlns:xlink="http://www.w3.org/1999/xlink">
    <!-- Generator: Sketch 43.1 (39012) - http://www.bohemiancoding.com/sketch -->
    <title>Fax</title>
    <desc>Created with Sketch.</desc>
    <defs></defs>
    <g id="Page-1" stroke="none" stroke-width="1" fill="none" fill-rule="evenodd">
        <g id="Desktop-Copy-11" transform="translate(-779.000000, -84.000000)" fill="#FFFFFF">
            <path d="M1085.61444,321.652059 L798.393024,321.652059 C789.675588,321.652059 782.847059,315.008188 782.847059,306.525424 L782.847059,155.716871 C782.847059,147.3726 789.675588,140.840294 798.393024,140.840294 L821.317647,140.840294 L821.317647,217.781471 L944.423529,217.781471 L944.423529,140.840294 L1085.61444,140.840294 C1094.73196,140.840294 1102.15294,147.511094 1102.15294,155.716871 L1102.15294,306.525424 C1102.15294,314.727353 1094.57808,321.652059 1085.61444,321.652059 L1085.61444,321.652059 Z M1102.15294,341.048929 L1102.15294,390.737541 C1102.15294,399.312635 1095.17822,406.287353 1086.60698,406.287353 L798.393024,406.287353 C789.817929,406.287353 782.847059,399.312635 782.847059,390.737541 L782.847059,341.048929 C782.847059,332.473835 789.817929,325.499118 798.393024,325.499118 L1085.61444,325.499118 L1086.60698,325.499118 C1095.17822,325.499118 1102.15294,332.473835 1102.15294,341.048929 L1102.15294,341.048929 Z M825.164706,93.6484235 L851.343941,120.612459 L882.947529,91.4979176 L915.747553,120.616306 L940.576471,93.81 L940.576471,136.993235 L940.576471,140.840294 L940.576471,213.934412 L825.164706,213.934412 L825.164706,93.6484235 Z M1106,306.525424 L1106,155.716871 C1106,145.391365 1096.85554,136.993235 1085.61444,136.993235 L944.423529,136.993235 L944.423529,84 L915.482106,115.241965 L882.905212,86.3120824 L851.497824,115.245812 L821.317647,84.1615765 L821.317647,136.993235 L798.393024,136.993235 C787.517388,136.993235 779,145.218247 779,155.716871 L779,306.525424 C779,314.200306 783.466435,320.621047 790.014129,323.633294 C783.524141,326.772494 779,333.366353 779,341.048929 L779,390.737541 C779,401.432365 787.702047,410.134412 798.393024,410.134412 L1086.60698,410.134412 C1097.29795,410.134412 1106,401.432365 1106,390.737541 L1106,341.048929 C1106,333.224012 1101.32198,326.510894 1094.63964,323.444788 C1101.29889,320.286353 1106,313.8156 1106,306.525424 L1106,306.525424 Z M1050.50618,304.793093 C1044.55093,304.793093 1039.70364,299.949646 1039.70364,293.994399 C1039.70364,288.039152 1044.55093,283.195705 1050.50618,283.195705 C1056.46142,283.195705 1061.30872,288.039152 1061.30872,293.994399 C1061.30872,299.949646 1056.46142,304.793093 1050.50618,304.793093 M1050.50618,279.348646 C1042.42735,279.348646 1035.85658,285.919422 1035.85658,293.994399 C1035.85658,302.069375 1042.42735,308.640152 1050.50618,308.640152 C1058.585,308.640152 1065.15578,302.069375 1065.15578,293.994399 C1065.15578,285.919422 1058.585,279.348646 1050.50618,279.348646 M996.087606,304.793093 C990.132359,304.793093 985.285065,299.949646 985.285065,293.994399 C985.285065,288.039152 990.132359,283.195705 996.087606,283.195705 C1002.04285,283.195705 1006.8863,288.039152 1006.8863,293.994399 C1006.8863,299.949646 1002.04285,304.793093 996.087606,304.793093 M996.087606,279.348646 C988.008782,279.348646 981.438006,285.919422 981.438006,293.994399 C981.438006,302.069375 988.008782,308.640152 996.087606,308.640152 C1004.16258,308.640152 1010.73336,302.069375 1010.73336,293.994399 C1010.73336,285.919422 1004.16258,279.348646 996.087606,279.348646 M941.665188,304.793093 C935.709941,304.793093 930.866494,299.949646 930.866494,293.994399 C930.866494,288.039152 935.709941,283.195705 941.665188,283.195705 C947.620435,283.195705 952.467729,288.039152 952.467729,293.994399 C952.467729,299.949646 947.620435,304.793093 941.665188,304.793093 M941.665188,279.348646 C933.590212,279.348646 927.019435,285.919422 927.019435,293.994399 C927.019435,302.069375 933.590212,308.640152 941.665188,308.640152 C949.744012,308.640152 956.314788,302.069375 956.314788,293.994399 C956.314788,285.919422 949.744012,279.348646 941.665188,279.348646 M887.246618,304.793093 C881.291371,304.793093 876.447924,299.949646 876.447924,293.994399 C876.447924,288.039152 881.291371,283.195705 887.246618,283.195705 C893.201865,283.195705 898.049159,288.039152 898.049159,293.994399 C898.049159,299.949646 893.201865,304.793093 887.246618,304.793093 M887.246618,279.348646 C879.171641,279.348646 872.600865,285.919422 872.600865,293.994399 C872.600865,302.069375 879.171641,308.640152 887.246618,308.640152 C895.325441,308.640152 901.896218,302.069375 901.896218,293.994399 C901.896218,285.919422 895.325441,279.348646 887.246618,279.348646 M832.828047,304.793093 C826.8728,304.793093 822.029353,299.949646 822.029353,293.994399 C822.029353,288.039152 826.8728,283.195705 832.828047,283.195705 C838.783294,283.195705 843.626741,288.039152 843.626741,293.994399 C843.626741,299.949646 838.783294,304.793093 832.828047,304.793093 M832.828047,279.348646 C824.753071,279.348646 818.182294,285.919422 818.182294,293.994399 C818.182294,302.069375 824.753071,308.640152 832.828047,308.640152 C840.903024,308.640152 847.4738,302.069375 847.4738,293.994399 C847.4738,285.919422 840.903024,279.348646 832.828047,279.348646 M1050.50618,264.158534 C1044.55093,264.158534 1039.70364,259.315087 1039.70364,253.35984 C1039.70364,247.40844 1044.55093,242.561146 1050.50618,242.561146 C1056.46142,242.561146 1061.30872,247.40844 1061.30872,253.35984 C1061.30872,259.315087 1056.46142,264.158534 1050.50618,264.158534 M1050.50618,238.714087 C1042.42735,238.714087 1035.85658,245.284864 1035.85658,253.35984 C1035.85658,261.434816 1042.42735,268.005593 1050.50618,268.005593 C1058.585,268.005593 1065.15578,261.434816 1065.15578,253.35984 C1065.15578,245.284864 1058.585,238.714087 1050.50618,238.714087 M996.087606,264.158534 C990.132359,264.158534 985.285065,259.315087 985.285065,253.35984 C985.285065,247.40844 990.132359,242.561146 996.087606,242.561146 C1002.04285,242.561146 1006.8863,247.40844 1006.8863,253.35984 C1006.8863,259.315087 1002.04285,264.158534 996.087606,264.158534 M996.087606,238.714087 C988.008782,238.714087 981.438006,245.284864 981.438006,253.35984 C981.438006,261.434816 988.008782,268.005593 996.087606,268.005593 C1004.16258,268.005593 1010.73336,261.434816 1010.73336,253.35984 C1010.73336,245.284864 1004.16258,238.714087 996.087606,238.714087 M941.665188,264.158534 C935.709941,264.158534 930.866494,259.315087 930.866494,253.35984 C930.866494,247.40844 935.709941,242.561146 941.665188,242.561146 C947.620435,242.561146 952.467729,247.40844 952.467729,253.35984 C952.467729,259.315087 947.620435,264.158534 941.665188,264.158534 M941.665188,238.714087 C933.590212,238.714087 927.019435,245.284864 927.019435,253.35984 C927.019435,261.434816 933.590212,268.005593 941.665188,268.005593 C949.744012,268.005593 956.314788,261.434816 956.314788,253.35984 C956.314788,245.284864 949.744012,238.714087 941.665188,238.714087 M887.246618,264.158534 C881.291371,264.158534 876.447924,259.315087 876.447924,253.35984 C876.447924,247.40844 881.291371,242.561146 887.246618,242.561146 C893.201865,242.561146 898.049159,247.40844 898.049159,253.35984 C898.049159,259.315087 893.201865,264.158534 887.246618,264.158534 M887.246618,238.714087 C879.171641,238.714087 872.600865,245.284864 872.600865,253.35984 C872.600865,261.434816 879.171641,268.005593 887.246618,268.005593 C895.325441,268.005593 901.896218,261.434816 901.896218,253.35984 C901.896218,245.284864 895.325441,238.714087 887.246618,238.714087 M832.828047,264.158534 C826.8728,264.158534 822.029353,259.315087 822.029353,253.35984 C822.029353,247.40844 826.8728,242.561146 832.828047,242.561146 C838.783294,242.561146 843.626741,247.40844 843.626741,253.35984 C843.626741,259.315087 838.783294,264.158534 832.828047,264.158534 M832.828047,238.714087 C824.753071,238.714087 818.182294,245.284864 818.182294,253.35984 C818.182294,261.434816 824.753071,268.005593 832.828047,268.005593 C840.903024,268.005593 847.4738,261.434816 847.4738,253.35984 C847.4738,245.284864 840.903024,238.714087 832.828047,238.714087 M1075.22276,189.783346 C1075.22276,198.858558 1067.84025,206.241064 1058.76889,206.241064 L980.111925,206.241064 C971.04056,206.241064 963.658054,198.858558 963.658054,189.783346 L963.658054,188.075252 C963.658054,179.00004 971.04056,171.617534 980.111925,171.617534 L1058.76889,171.617534 C1067.84025,171.617534 1075.22276,179.00004 1075.22276,188.075252 L1075.22276,189.783346 Z M1058.76889,167.770475 L980.111925,167.770475 C968.916984,167.770475 959.810995,176.880311 959.810995,188.075252 L959.810995,189.783346 C959.810995,200.978287 968.916984,210.088122 980.111925,210.088122 L1058.76889,210.088122 C1069.96383,210.088122 1079.06982,200.978287 1079.06982,189.783346 L1079.06982,188.075252 C1079.06982,176.880311 1069.96383,167.770475 1058.76889,167.770475 L1058.76889,167.770475 Z M942.003345,387.377135 C931.858651,387.377135 923.610556,379.125194 923.610556,368.984347 C923.610556,358.8435 931.858651,350.587712 942.003345,350.587712 C952.148039,350.587712 960.396133,358.8435 960.396133,368.984347 C960.396133,379.125194 952.148039,387.377135 942.003345,387.377135 M942.003345,346.740653 C929.738921,346.740653 919.763498,356.719924 919.763498,368.984347 C919.763498,381.248771 929.738921,391.224194 942.003345,391.224194 C954.267768,391.224194 964.243192,381.248771 964.243192,368.984347 C964.243192,356.719924 954.267768,346.740653 942.003345,346.740653" id="Fax"></path>
        </g>
    </g>
</svg>