<?xml version="1.0" encoding="UTF-8"?>
<svg width="134px" height="134px" viewBox="0 0 134 134" version="1.1" xmlns="http://www.w3.org/2000/svg" xmlns:xlink="http://www.w3.org/1999/xlink">
    <!-- Generator: Sketch 43.1 (39012) - http://www.bohemiancoding.com/sketch -->
    <title>Group 9</title>
    <desc>Created with Sketch.</desc>
    <defs></defs>
    <g id="Page-1" stroke="none" stroke-width="1" fill="none" fill-rule="evenodd">
        <g id="Desktop-Copy-12" transform="translate(-777.000000, -784.000000)" stroke="#E4002B">
            <g id="Group-9" transform="translate(779.000000, 786.000000)">
                <circle id="Oval-2" stroke-width="3" cx="65" cy="65" r="65"></circle>
                <path d="M93.3863636,61.6556818 C88.4017045,65.7727273 80.5715909,68.7227273 71.7954545,69.8125 L71.7954545,69.4153409 C71.7954545,68.2340909 70.8346591,67.2727273 69.6528409,67.2727273 L60.3017045,67.2727273 C59.1198864,67.2727273 58.1590909,68.2340909 58.1590909,69.4153409 L58.1590909,70.0090909 C49.7875,69.2142045 42.1278409,66.7181818 36.5681818,62.9732955 L36.5681818,48.4607955 C36.5681818,47.5698864 37.2892045,46.8181818 38.1426136,46.8181818 L54.75,46.8181818 L55.3181818,46.8181818 L75.2045455,46.8181818 L75.7727273,46.8181818 L92.0340909,46.8181818 C92.9630682,46.8181818 93.3863636,47.6693182 93.3863636,48.4607955 L93.3863636,61.6556818 Z M71.2272727,69.8840909 C71.1772727,69.8903409 71.1278409,69.8977273 71.0778409,69.9034091 L71.1414773,70.4681818 C71.1698864,70.4647727 71.1982955,70.4602273 71.2272727,70.4573864 L71.2272727,70.8113636 C71.2272727,71.6801136 70.5210227,72.3863636 69.6528409,72.3863636 L60.3017045,72.3863636 C59.4335227,72.3863636 58.7272727,71.6801136 58.7272727,70.8113636 L58.7272727,69.4153409 C58.7272727,68.5471591 59.4335227,67.8409091 60.3017045,67.8409091 L69.6528409,67.8409091 C70.5210227,67.8409091 71.2272727,68.5471591 71.2272727,69.4153409 L71.2272727,69.8840909 Z M92.25,87.8573864 C92.25,88.6960227 91.4545455,89.4318182 90.5477273,89.4318182 L39.6289773,89.4318182 C38.6920455,89.4318182 38.2727273,88.6409091 38.2727273,87.8573864 L38.2727273,64.6988636 C43.6823864,67.8011364 50.6267045,69.8681818 58.1301136,70.5772727 L58.1590909,70.2710227 L58.1590909,70.8113636 C58.1590909,71.9931818 59.1198864,72.9545455 60.3017045,72.9545455 L69.6528409,72.9545455 C70.8346591,72.9545455 71.7954545,71.9931818 71.7954545,70.8113636 L71.7954545,70.3852273 C79.8767045,69.3903409 87.1721591,66.8272727 92.25,63.2284091 L92.25,87.8573864 Z M55.3181818,42.1420455 C55.3181818,41.2153409 55.8971591,40.5681818 56.7261364,40.5681818 L73.4511364,40.5681818 C74.36875,40.5681818 75.2045455,41.3181818 75.2045455,42.1420455 L75.2045455,46.25 L55.3181818,46.25 L55.3181818,42.1420455 Z M92.0340909,46.25 L75.7727273,46.25 L75.7727273,42.1420455 C75.7727273,41.0005682 74.6880682,40 73.4511364,40 L56.7261364,40 C55.58125,40 54.75,40.9011364 54.75,42.1420455 L54.75,46.25 L38.1426136,46.25 C36.98125,46.25 36,47.2619318 36,48.4607955 L36,63.2744318 L36.1244318,63.3585227 C36.6693182,63.7295455 37.2409091,64.0846591 37.8244318,64.4318182 L37.7045455,64.4318182 L37.7045455,87.8573864 C37.7045455,89.11875 38.4960227,90 39.6289773,90 L90.5477273,90 C91.7573864,90 92.8181818,88.9988636 92.8181818,87.8573864 L92.8181818,62.8238636 C93.175,62.5568182 93.5204545,62.2846591 93.8522727,62.0073864 L93.9545455,61.9221591 L93.9545455,48.4607955 C93.9545455,47.1795455 93.1465909,46.25 92.0340909,46.25 L92.0340909,46.25 Z" id="Briefcase" stroke-width="2" fill="#FFFFFF"></path>
            </g>
        </g>
    </g>
</svg>