<?xml version="1.0" encoding="UTF-8"?>
<svg width="134px" height="134px" viewBox="0 0 134 134" version="1.1" xmlns="http://www.w3.org/2000/svg" xmlns:xlink="http://www.w3.org/1999/xlink">
    <!-- Generator: Sketch 43.1 (39012) - http://www.bohemiancoding.com/sketch -->
    <title>Group 7</title>
    <desc>Created with Sketch.</desc>
    <defs></defs>
    <g id="Page-1" stroke="none" stroke-width="1" fill="none" fill-rule="evenodd">
        <g id="Desktop-Copy-12" transform="translate(-113.000000, -784.000000)" stroke="#E4002B">
            <g id="Group-4" transform="translate(66.000000, 786.000000)">
                <g id="Group-6" transform="translate(49.000000, 0.000000)">
                    <g id="Group-7">
                        <circle id="Oval-2" stroke-width="3" cx="65" cy="65" r="65"></circle>
                        <path d="M54.2182606,53.4877468 C54.6758022,52.4954654 55.3461099,52.2193086 55.3718427,52.2086389 L55.5670353,52.1352063 L55.5745669,51.9262059 C55.5758221,51.8810166 55.7371228,47.3884484 56.8687378,45.2526269 C57.9601846,43.1902381 62.6573599,42.4113505 62.7044321,42.4031914 L63.0797542,42.342939 L62.5186539,40.8008546 C64.3908712,41.1510716 70.6665333,42.4521464 72.7195077,44.5076313 L73.0684695,44.8553378 C75.0944558,47.1424178 75.0040772,51.8577943 75.002822,51.9080047 L75.0015667,52.106963 L75.1773028,52.196714 C75.1823239,52.1992245 75.7271058,52.4879338 76.1884131,53.4877468 C76.4080833,53.9653725 76.2599628,54.3049197 75.956818,54.9130922 C75.7258506,55.3750271 75.4390241,55.9499353 75.3662192,56.7325886 C75.2406934,58.0976817 73.869324,58.2759283 73.8109545,58.2834598 L73.6057199,58.3073097 L73.5460951,58.5037576 C73.5203623,58.5891152 70.8849482,67.0552025 65.3141134,67.0552025 C59.7376299,67.0552025 56.8787799,58.5822112 56.8505366,58.4968537 L56.7871461,58.3066821 L56.5881877,58.2834598 C56.5304458,58.2759283 55.1603317,58.0976817 55.034806,56.7325886 C54.9626286,55.9511905 54.6770574,55.37691 54.4473452,54.9149751 C54.1454557,54.306175 53.9973352,53.9660001 54.2182606,53.4877468 M54.4096875,56.7903305 C54.5352133,58.1547959 55.6172456,58.7240554 56.317052,58.8740587 C56.7802421,60.1801546 59.6886748,67.6828315 65.3141134,67.6828315 C70.9364138,67.6828315 73.6515368,60.196473 74.0871113,58.8728035 C74.7869176,58.7215449 75.8664395,58.1516578 75.9913376,56.7903305 C76.0528453,56.1250438 76.3001311,55.6304721 76.5179183,55.1936424 C76.8254565,54.5791936 77.1147935,53.9986368 76.7583002,53.2247703 C76.3541072,52.3479726 75.8852683,51.9230678 75.6323338,51.7429382 C75.6329615,50.7569331 75.5049252,46.1513916 73.1500612,44.0482069 L73.1218179,44.0231018 C73.0226525,43.9264469 72.9147004,43.8310473 72.7998443,43.7375306 L72.6272463,43.5850167 L72.6272463,43.6025904 C69.6278074,41.3443813 62.4138399,40.1399613 62.0881004,40.0859852 L61.5590092,40 L62.2337104,41.8521331 C61.0387048,42.0893769 57.3677029,42.9686851 56.3139138,44.9588966 C55.2375301,46.9911592 54.9971482,50.8178131 54.9550971,51.7184607 C54.6525799,51.890431 54.0651192,52.3216122 53.6483735,53.2247703 C53.2912526,53.9986368 53.579962,54.5791936 53.8856173,55.19427 C54.1021493,55.6310998 54.3481798,56.1256714 54.4096875,56.7903305 M85.0738194,73.0910476 C80.3584428,71.7818136 73.155145,69.8167072 73.155145,69.8167072 L72.8407029,69.7313497 L68.7592316,87.1706486 L66.5863801,77.3363301 L68.6606939,70.7386942 L65.0957613,70.5968501 L65.0957613,70.591829 L65.0957613,70.5943395 L65.0957613,70.591829 L65.0957613,70.5968501 L61.4429606,70.7386942 L63.4670641,77.3363301 L61.2753837,87.1706486 L57.1838703,69.7313497 L56.8656625,69.8167072 C56.8656625,69.8167072 49.6592265,71.7818136 44.9444776,73.0910476 C40.0558755,74.4492367 39.9987612,77.331309 40.0000165,77.4844505 L41.1780761,89.5324164 L41.8025669,89.4715364 L40.6251349,77.4536967 C40.6251349,77.4285915 40.6766005,74.92749 45.109544,73.696082 C49.2387151,72.5487762 55.2771335,70.8993672 56.7118934,70.5077267 L61.2735008,90 L64.0601735,77.3903061 L64.0777471,77.3087144 L62.2105509,71.3336865 L65.0072656,71.2219685 L67.804608,71.3336865 L65.9380394,77.3087144 L68.7422857,90 L73.3038931,70.5077267 C74.7380253,70.8993672 80.7764437,72.5487762 84.9056148,73.696082 C89.3027834,74.917448 89.3893962,77.3526484 89.3919068,77.4229429 L88.2132195,89.4715364 L88.838338,89.5324164 L90.0182805,77.4536967 C90.0182805,77.331309 89.9617939,74.4492367 85.0738194,73.0910476 M74.5099449,83.6966594 L82.6691217,83.6966594 L82.6691217,83.0690304 L74.5099449,83.0690304 L74.5099449,83.6966594 Z" id="User" stroke-width="2" fill="#FFFFFF"></path>
                    </g>
                </g>
            </g>
        </g>
    </g>
</svg>