<?xml version="1.0" encoding="UTF-8"?>
<svg width="134px" height="134px" viewBox="0 0 134 134" version="1.1" xmlns="http://www.w3.org/2000/svg" xmlns:xlink="http://www.w3.org/1999/xlink">
    <!-- Generator: Sketch 43.1 (39012) - http://www.bohemiancoding.com/sketch -->
    <title>Group 6</title>
    <desc>Created with Sketch.</desc>
    <defs></defs>
    <g id="Page-1" stroke="none" stroke-width="1" fill="none" fill-rule="evenodd">
        <g id="Desktop-Copy-13" transform="translate(-445.000000, -784.000000)" stroke="#E4002B">
            <g id="Group-8" transform="translate(362.000000, 747.000000)">
                <g id="Group-6" transform="translate(85.000000, 39.000000)">
                    <circle id="Oval-2" stroke-width="3" cx="65" cy="65" r="65"></circle>
                    <path d="M60.7805369,49.8506827 C60.7805369,48.304552 62.0382791,47.0468099 63.5838341,47.0468099 C65.1299648,47.0468099 66.3871313,48.304552 66.3871313,49.8506827 C66.3871313,51.3968133 65.1299648,52.6539799 63.5838341,52.6539799 C62.0382791,52.6539799 60.7805369,51.3968133 60.7805369,49.8506827 L60.7805369,49.8506827 Z M63.8589832,53.2157906 C65.5933435,53.0753379 66.962757,51.6213074 66.962757,49.8506827 C66.962757,49.4368078 66.8844719,49.0419286 66.747473,48.675255 L81.4581635,40.5030969 L81.1784094,40 L66.5011052,48.1537381 C65.9145426,47.1492713 64.8277613,46.4711842 63.5838341,46.4711842 C61.7211093,46.4711842 60.2049112,47.9873823 60.2049112,49.8506827 C60.2049112,50.422279 60.3488177,50.9599134 60.6003661,51.4325021 L46.0353089,59.523497 L46.315063,60.0265939 L60.9152334,51.9160277 C61.4764684,52.6390136 62.321487,53.1288711 63.2833575,53.2146393 L63.2833575,89.4243743 L56.375849,89.4243743 L56.375849,90 L71.9177431,90 L71.9177431,89.4243743 L63.8589832,89.4243743 L63.8589832,53.2157906 Z M49.5383942,84.2173217 C45.9338261,84.2173217 42.950358,81.4704359 42.6084364,77.9113421 L56.4821671,77.9113421 C56.1413967,81.4445327 53.1590799,84.2173217 49.5383942,84.2173217 L49.5383942,84.2173217 Z M49.541848,62.1000553 L56.5178559,77.3006033 C56.5178559,77.3121158 56.516129,77.3242039 56.5155534,77.3357164 L42.7373765,77.3357164 L49.541848,62.1000553 Z M49.5349405,60.7041629 L42.0287813,77.5107066 L42,77.5740255 L42.0040294,77.6431006 C42.2175865,81.6523336 45.5268587,84.7929474 49.5383942,84.7929474 C53.7041975,84.7929474 57.0934816,81.4036633 57.0934816,77.2378601 L49.5349405,60.7041629 Z M79.4748452,66.645829 C75.7925675,66.645829 72.74981,63.7803643 72.5189841,60.1101748 L72.5379798,60.0670028 L86.4347356,60.0670028 C86.2252078,63.7285579 83.1882066,66.645829 79.4748452,66.645829 L79.4748452,66.645829 Z M79.4782989,44.5285625 L86.3460892,59.4913771 L72.7952845,59.4913771 L79.4782989,44.5285625 Z M79.4713914,43.1326702 L71.9652322,59.9392139 L71.9364509,60.0025328 L71.9404803,60.0716078 C72.1540374,64.0808409 75.4633096,67.2214547 79.4748452,67.2214547 C83.6406484,67.2214547 87.0305082,63.8321706 87.0305082,59.6663673 L79.4713914,43.1326702 Z" id="Balance" stroke-width="2" fill="#FFFFFF"></path>
                </g>
            </g>
        </g>
    </g>
</svg>