<?xml version="1.0" encoding="UTF-8"?>
<svg width="134px" height="134px" viewBox="0 0 134 134" version="1.1" xmlns="http://www.w3.org/2000/svg" xmlns:xlink="http://www.w3.org/1999/xlink">
    <!-- Generator: Sketch 43.1 (39012) - http://www.bohemiancoding.com/sketch -->
    <title>Group 4</title>
    <desc>Created with Sketch.</desc>
    <defs></defs>
    <g id="Page-1" stroke="none" stroke-width="1" fill="none" fill-rule="evenodd">
        <g id="Desktop-Copy-13" transform="translate(-113.000000, -784.000000)" stroke="#E4002B">
            <g id="Group-7" transform="translate(30.000000, 747.000000)">
                <g id="Group-4" transform="translate(85.000000, 39.000000)">
                    <circle id="Oval-2" stroke-width="3" cx="65" cy="65" r="65"></circle>
                    <path d="M52.3341358,55.2351872 L52.3341358,89.3440601 L47.7432127,89.3440601 L47.7432127,70.977744 L36.592235,70.977744 L36.592235,89.3440601 L32,89.3440601 L32,90 L36.592235,90 L47.7432127,90 L52.3341358,90 L63.4851134,90 L67.4207526,90 L78.5723862,90 L83.1639653,90 L94.314943,90 L98.2499262,90 L98.2499262,89.3440601 L94.314943,89.3440601 L94.314943,59.8267663 L83.1639653,59.8267663 L83.1639653,89.3440601 L78.5723862,89.3440601 L78.5723862,67.6980446 L67.4207526,67.6980446 L67.4207526,89.3440601 L63.4851134,89.3440601 L63.4851134,55.2351872 L52.3341358,55.2351872 Z M52.9907316,55.8911271 L62.8291736,55.8911271 L62.8291736,89.3440601 L52.9907316,89.3440601 L52.9907316,55.8911271 Z M83.8199052,60.4827061 L93.6583472,60.4827061 L93.6583472,89.3440601 L83.8199052,89.3440601 L83.8199052,60.4827061 Z M68.0766925,68.3539845 L77.9157904,68.3539845 L77.9157904,89.3440601 L68.0766925,89.3440601 L68.0766925,68.3539845 Z M37.2481748,71.6336838 L47.0872728,71.6336838 L47.0872728,89.3440601 L37.2481748,89.3440601 L37.2481748,71.6336838 Z M41.9418181,56.3984966 C44.0624717,56.3984966 45.7875936,58.1236184 45.7875936,60.244272 C45.7875936,62.3649256 44.0624717,64.0907034 41.9418181,64.0907034 C39.8211646,64.0907034 38.0960427,62.3649256 38.0960427,60.244272 C38.0960427,58.1236184 39.8211646,56.3984966 41.9418181,56.3984966 M57.6843749,40.6559399 C59.8050284,40.6559399 61.5301503,42.3810617 61.5301503,44.5017153 C61.5301503,46.6223689 59.8050284,48.3481466 57.6843749,48.3481466 C55.5637213,48.3481466 53.8385994,46.6223689 53.8385994,44.5017153 C53.8385994,42.3810617 55.5637213,40.6559399 57.6843749,40.6559399 M72.7709917,53.1187973 C74.8916453,53.1187973 76.6167671,54.8439191 76.6167671,56.9645727 C76.6167671,59.0852263 74.8916453,60.811004 72.7709917,60.811004 C70.6503381,60.811004 68.9252163,59.0852263 68.9252163,56.9645727 C68.9252163,54.8439191 70.6503381,53.1187973 72.7709917,53.1187973 M88.5135484,45.2475189 C90.634202,45.2475189 92.3593239,46.9726407 92.3593239,49.0932943 C92.3593239,51.2139479 90.634202,52.9397257 88.5135484,52.9397257 C86.3928949,52.9397257 84.667773,51.2139479 84.667773,49.0932943 C84.667773,46.9726407 86.3928949,45.2475189 88.5135484,45.2475189 M41.9418181,64.7466432 C44.4238946,64.7466432 46.4435334,62.7270044 46.4435334,60.244272 C46.4435334,58.9376398 45.8800811,57.7621956 44.9880029,56.938991 L54.0340695,47.1261307 C54.8520265,48.2609066 56.1816166,49.0040865 57.6843749,49.0040865 C59.4547565,49.0040865 60.9863761,47.973605 61.7210288,46.4826537 L69.1305255,54.3270385 C68.5913429,55.0689065 68.2692764,55.9786951 68.2692764,56.9645727 C68.2692764,59.4473051 70.2889153,61.4669439 72.7709917,61.4669439 C75.2530682,61.4669439 77.272707,59.4473051 77.272707,56.9645727 C77.272707,56.3984966 77.163165,55.8586581 76.9716306,55.3588319 L84.5923399,51.2979082 C85.365693,52.6675106 86.8323746,53.5956655 88.5135484,53.5956655 C90.9956249,53.5956655 93.0152637,51.5760267 93.0152637,49.0932943 C93.0152637,46.6112179 90.9956249,44.591579 88.5135484,44.591579 C86.031472,44.591579 84.0118332,46.6112179 84.0118332,49.0932943 C84.0118332,49.6613382 84.1220311,50.2024886 84.3142214,50.7029708 L76.6935121,54.7632385 C75.9214709,53.3923242 74.4528215,52.4628574 72.7709917,52.4628574 C71.5115872,52.4628574 70.3728756,52.9843296 69.5549186,53.8206529 L61.9899641,45.8129391 C62.1172165,45.3977291 62.1860901,44.9582494 62.1860901,44.5017153 C62.1860901,42.0196388 60.1664513,40 57.6843749,40 C55.2022984,40 53.1826596,42.0196388 53.1826596,44.5017153 C53.1826596,45.2376798 53.363699,45.9310082 53.6785501,46.5456239 L44.4757138,56.5264049 C43.753524,56.0324821 42.881124,55.7425567 41.9418181,55.7425567 C39.4597417,55.7425567 37.4401029,57.7621956 37.4401029,60.244272 C37.4401029,62.7270044 39.4597417,64.7466432 41.9418181,64.7466432" id="Chart-1" stroke-width="2" fill="#FFFFFF"></path>
                </g>
            </g>
        </g>
    </g>
</svg>