<?xml version="1.0" encoding="UTF-8"?>
<svg width="134px" height="134px" viewBox="0 0 134 134" version="1.1" xmlns="http://www.w3.org/2000/svg" xmlns:xlink="http://www.w3.org/1999/xlink">
    <!-- Generator: Sketch 43.1 (39012) - http://www.bohemiancoding.com/sketch -->
    <title>Group 8</title>
    <desc>Created with Sketch.</desc>
    <defs></defs>
    <g id="Page-1" stroke="none" stroke-width="1" fill="none" fill-rule="evenodd">
        <g id="Desktop-Copy-12" transform="translate(-445.000000, -784.000000)" stroke="#E4002B">
            <g id="Group-8" transform="translate(447.000000, 786.000000)">
                <circle id="Oval-2" stroke-width="3" cx="65" cy="65" r="65"></circle>
                <path d="M93.6585366,72.3170732 L77.3426829,72.3170732 C72.1737805,72.3170732 68.1237805,68.4335366 68.1237805,63.4756098 C68.1237805,58.5176829 72.1737805,54.6341463 77.3426829,54.6341463 L93.6585366,54.6341463 L93.6585366,72.3170732 Z M90,84.472561 C90,87.2762195 87.9707317,89.3902439 85.2792683,89.3902439 L45.5963415,89.3902439 C42.8,89.3902439 40.6097561,87.229878 40.6097561,84.472561 L40.6097561,45.3182927 C40.6097561,42.6341463 42.7536585,40.6097561 45.5963415,40.6097561 L85.2792683,40.6097561 C88.0585366,40.6097561 90,42.5457317 90,45.3182927 L90,54.0243902 L77.3426829,54.0243902 C71.8310976,54.0243902 67.5140244,58.1762195 67.5140244,63.4756098 C67.5140244,68.775 71.8310976,72.9268293 77.3426829,72.9268293 L90,72.9268293 L90,84.472561 Z M90.6097561,54.0243902 L90.6097561,45.3182927 C90.6097561,42.2365854 88.3676829,40 85.2792683,40 L45.5963415,40 C42.4054878,40 40,42.2865854 40,45.3182927 L40,84.472561 C40,87.520122 42.5103659,90 45.5963415,90 L85.2792683,90 C88.3176829,90 90.6097561,87.6237805 90.6097561,84.472561 L90.6097561,72.9268293 L94.2682927,72.9268293 L94.2682927,54.0243902 L90.6097561,54.0243902 Z M81.6610976,63.4779878 C81.6610976,65.9145732 79.6793902,67.8962805 77.2434146,67.8962805 C74.807439,67.8962805 72.825122,65.9145732 72.825122,63.4779878 C72.825122,61.0420122 74.807439,59.0596951 77.2434146,59.0596951 C79.6793902,59.0596951 81.6610976,61.0420122 81.6610976,63.4779878 M72.2153659,63.4779878 C72.2153659,66.2505488 74.4708537,68.5060366 77.2434146,68.5060366 C80.0153659,68.5060366 82.2708537,66.2505488 82.2708537,63.4779878 C82.2708537,60.7054268 80.0153659,58.449939 77.2434146,58.449939 C74.4708537,58.449939 72.2153659,60.7054268 72.2153659,63.4779878" id="Wallet-#1" stroke-width="2" fill="#FFFFFF"></path>
            </g>
        </g>
    </g>
</svg>