<?xml version="1.0" encoding="UTF-8"?>
<svg width="134px" height="134px" viewBox="0 0 134 134" version="1.1" xmlns="http://www.w3.org/2000/svg" xmlns:xlink="http://www.w3.org/1999/xlink">
    <!-- Generator: Sketch 43.1 (39012) - http://www.bohemiancoding.com/sketch -->
    <title>Group 11</title>
    <desc>Created with Sketch.</desc>
    <defs></defs>
    <g id="Page-1" stroke="none" stroke-width="1" fill="none" fill-rule="evenodd">
        <g id="Desktop-Copy-11" transform="translate(-777.000000, -784.000000)" stroke="#E4002B">
            <g id="Group-8" transform="translate(694.000000, 747.000000)">
                <g id="Group-11" transform="translate(85.000000, 39.000000)">
                    <circle id="Oval-2" stroke-width="3" cx="65" cy="65" r="65"></circle>
                    <path d="M79.1445783,51.4457831 L69.5060241,51.4457831 L69.5060241,40.6638554 L79.1445783,51.3957831 L79.1445783,51.4457831 Z M79.1445783,86.2144578 C79.1445783,87.8801205 77.6006024,89.3975904 75.9060241,89.3975904 L46.6283133,89.3975904 C44.9885542,89.3975904 43.6024096,87.939759 43.6024096,86.2144578 L43.6024096,43.6283133 C43.6024096,41.9596386 44.960241,40.6024096 46.6283133,40.6024096 L68.9036145,40.6024096 L68.9036145,52.0481928 L69.5060241,52.0481928 L79.1445783,52.0481928 L79.1445783,86.2144578 Z M46.6283133,40 C44.6277108,40 43,41.6277108 43,43.6283133 L43,86.2144578 C43,88.2662651 44.6620482,90 46.6283133,90 L75.9060241,90 C77.9162651,90 79.746988,88.1957831 79.746988,86.2144578 L79.746988,51.1650602 L69.7192771,40 L46.6283133,40 Z M91.1927711,78.2294578 C91.1927711,80.0716265 89.426506,84.578253 87.8837349,84.578253 L86.553012,84.578253 C85.0307229,84.578253 83.3614458,80.1216265 83.3614458,78.2294578 L83.3614458,55.0601807 L91.1927711,55.0601807 L91.1927711,78.2294578 Z M83.3614458,52.9439157 C83.3614458,51.2451205 84.9120482,49.638494 86.553012,49.638494 L87.8837349,49.638494 C89.5536145,49.638494 91.1927711,51.2758434 91.1927711,52.9439157 L91.1927711,54.4577711 L83.3614458,54.4577711 L83.3614458,52.9439157 Z M91.7951807,54.4577711 L91.7951807,52.9439157 C91.7951807,50.9348795 89.8945783,49.0360843 87.8837349,49.0360843 L86.553012,49.0360843 C84.5674699,49.0360843 82.7590361,50.8987349 82.7590361,52.9439157 L82.7590361,54.4577711 L82.7590361,55.0601807 L82.7590361,78.2294578 C82.7590361,80.188494 84.4415663,85.1806627 86.553012,85.1806627 L86.9759036,85.1806627 L86.9759036,87.5903012 L87.5783133,87.5903012 L87.5783133,85.1806627 L87.8837349,85.1806627 C90.0186747,85.1806627 91.7951807,80.1336747 91.7951807,78.2294578 L91.7951807,55.0601807 L93.6024096,55.0601807 L93.6024096,65.9035542 L94.2048193,65.9035542 L94.2048193,55.0601807 L94.2048193,54.4577711 L91.7951807,54.4577711 Z M49.0240964,70.7228916 L72.5180723,70.7228916 L72.5180723,70.1204819 L49.0240964,70.1204819 L49.0240964,70.7228916 Z M49.0240964,64.6987952 L72.5180723,64.6987952 L72.5180723,64.0963855 L49.0240964,64.0963855 L49.0240964,64.6987952 Z M49.0240964,59.8795181 L72.5180723,59.8795181 L72.5180723,59.2771084 L49.0240964,59.2771084 L49.0240964,59.8795181 Z M49.0240964,76.1445783 L62.2771084,76.1445783 L62.2771084,75.5421687 L49.0240964,75.5421687 L49.0240964,76.1445783 Z M62.2771084,50.2409639 L49.0240964,50.2409639 L49.0240964,50.8433735 L62.2771084,50.8433735 L62.2771084,50.2409639 Z" id="Fill-Form" stroke-width="2" fill="#FFFFFF"></path>
                </g>
            </g>
        </g>
    </g>
</svg>