<?xml version="1.0" encoding="UTF-8"?>
<svg width="134px" height="134px" viewBox="0 0 134 134" version="1.1" xmlns="http://www.w3.org/2000/svg" xmlns:xlink="http://www.w3.org/1999/xlink">
    <!-- Generator: Sketch 43.1 (39012) - http://www.bohemiancoding.com/sketch -->
    <title>Group 9</title>
    <desc>Created with Sketch.</desc>
    <defs></defs>
    <g id="Page-1" stroke="none" stroke-width="1" fill="none" fill-rule="evenodd">
        <g id="Desktop-Copy-11" transform="translate(-113.000000, -784.000000)" stroke="#E4002B">
            <g id="Group-6" transform="translate(30.000000, 747.000000)">
                <g id="Group-4" transform="translate(44.000000, 39.000000)">
                    <g id="Group-9" transform="translate(41.000000, 0.000000)">
                        <circle id="Oval-2" stroke-width="3" cx="65" cy="65" r="65"></circle>
                        <path d="M65.3401845,40 L39.0002363,56.4824927 L91.6807007,56.4824927 L65.3401845,40 Z M65.3401845,40.6703433 L89.7020517,55.9144051 L40.9783172,55.9144051 L65.3401845,40.6703433 Z M37,90 L93.2406692,90 L93.2406692,89.4319124 L37,89.4319124 L37,90 Z M40.4085254,86.023387 L90.3996632,86.023387 L90.3996632,85.4552995 L40.4085254,85.4552995 L40.4085254,86.023387 Z M46.6574886,58.1870962 L50.6341016,58.1870962 L50.6341016,81.4786865 L46.6574886,81.4786865 L46.6574886,58.1870962 Z M62.5639405,81.4786865 L51.2021892,81.4786865 L51.2021892,58.1870962 L62.5639405,58.1870962 L62.5639405,81.4786865 Z M67.1086411,81.4786865 L63.1320281,81.4786865 L63.1320281,58.1870962 L67.1086411,58.1870962 L67.1086411,81.4786865 Z M80.1746551,81.4786865 L67.6767286,81.4786865 L67.6767286,58.1870962 L80.1746551,58.1870962 L80.1746551,81.4786865 Z M84.7193557,81.4786865 L80.7427427,81.4786865 L80.7427427,58.1870962 L84.7193557,58.1870962 L84.7193557,81.4786865 Z M42.6808757,81.4786865 L42.6808757,82.0467741 L46.0894011,82.0467741 L46.6574886,82.0467741 L50.6341016,82.0467741 L51.2021892,82.0467741 L62.5639405,82.0467741 L63.1320281,82.0467741 L67.1086411,82.0467741 L67.6767286,82.0467741 L80.1746551,82.0467741 L80.7427427,82.0467741 L84.7193557,82.0467741 L85.2874432,82.0467741 L88.1278811,82.0467741 L88.1278811,81.4786865 L85.2874432,81.4786865 L85.2874432,58.1870962 L88.1278811,58.1870962 L88.1278811,57.6190087 L42.6808757,57.6190087 L42.6808757,58.1870962 L46.0894011,58.1870962 L46.0894011,81.4786865 L42.6808757,81.4786865 Z" id="Building" stroke-width="2"></path>
                    </g>
                </g>
            </g>
        </g>
    </g>
</svg>