<?xml version="1.0" encoding="UTF-8"?>
<svg width="134px" height="134px" viewBox="0 0 134 134" version="1.1" xmlns="http://www.w3.org/2000/svg" xmlns:xlink="http://www.w3.org/1999/xlink">
    <!-- Generator: Sketch 43.1 (39012) - http://www.bohemiancoding.com/sketch -->
    <title>Group 10</title>
    <desc>Created with Sketch.</desc>
    <defs></defs>
    <g id="Page-1" stroke="none" stroke-width="1" fill="none" fill-rule="evenodd">
        <g id="Desktop-Copy-13" transform="translate(-777.000000, -784.000000)" stroke="#E4002B">
            <g id="Group-9" transform="translate(694.000000, 747.000000)">
                <g id="Group-10" transform="translate(85.000000, 39.000000)">
                    <circle id="Oval-2" stroke-width="3" cx="65" cy="65" r="65"></circle>
                    <path d="M64.6838418,40.5649718 C58.0668927,40.5649718 52.6838418,45.9480226 52.6838418,52.5649718 C52.6838418,58.6672316 62.9296045,80.020339 64.6838418,83.6322034 C66.4380791,80.020339 76.6838418,58.6672316 76.6838418,52.5649718 C76.6838418,45.9480226 71.300791,40.5649718 64.6838418,40.5649718 L64.6838418,40.5649718 Z M64.6838418,84.9152542 L64.4307345,84.4011299 C63.9279096,83.380791 52.1188701,59.3361582 52.1188701,52.5649718 C52.1188701,45.6367232 57.7550282,40 64.6838418,40 C71.6126554,40 77.2488136,45.6367232 77.2488136,52.5649718 C77.2488136,59.3361582 65.439774,83.380791 64.9369492,84.4011299 L64.6838418,84.9152542 Z M64.739548,90 C54.2310734,90 46,87.4819209 46,84.2672316 C45.999435,81.7853107 50.8858757,79.6615819 58.4491525,78.8564972 L58.5090395,79.4186441 C51.4757062,80.1672316 46.5644068,82.160452 46.5649718,84.2672316 C46.5649718,86.7632768 53.8683616,89.4350282 64.739548,89.4350282 C75.6107345,89.4350282 82.9141243,86.7632768 82.9141243,84.2672316 C82.9141243,82.0745763 77.7446328,80.0542373 70.3423729,79.3553672 L70.3954802,78.7926554 C78.3435028,79.5435028 83.479096,81.6926554 83.479096,84.2672316 C83.479096,87.4819209 75.2480226,90 64.739548,90 M64.8471751,44.9898305 C60.5985876,44.9898305 57.1420904,48.4463277 57.1420904,52.6954802 C57.1420904,56.9435028 60.5985876,60.399435 64.8471751,60.399435 C69.0957627,60.399435 72.5522599,56.9435028 72.5522599,52.6954802 C72.5522599,48.4463277 69.0957627,44.9898305 64.8471751,44.9898305 M64.8471751,60.9644068 C60.2872881,60.9644068 56.5771186,57.2548023 56.5771186,52.6954802 C56.5771186,48.1344633 60.2872881,44.4248588 64.8471751,44.4248588 C69.4070621,44.4248588 73.1172316,48.1344633 73.1172316,52.6954802 C73.1172316,57.2548023 69.4070621,60.9644068 64.8471751,60.9644068" id="Map" stroke-width="2" fill="#FFFFFF"></path>
                </g>
            </g>
        </g>
    </g>
</svg>