<?xml version="1.0" encoding="UTF-8"?>
<svg width="63px" height="64px" viewBox="0 0 63 64" version="1.1" xmlns="http://www.w3.org/2000/svg" xmlns:xlink="http://www.w3.org/1999/xlink">
    <!-- Generator: Sketch 43.1 (39012) - http://www.bohemiancoding.com/sketch -->
    <title>mars-2</title>
    <desc>Created with Sketch.</desc>
    <defs></defs>
    <g id="Page-1" stroke="none" stroke-width="1" fill="none" fill-rule="evenodd">
        <g id="Desktop-Copy-11" transform="translate(-123.000000, -2602.000000)" fill="#FFFFFF">
            <g id="Group-32" transform="translate(52.000000, 2602.000000)">
                <g id="Group-39">
                    <g id="mars-2" transform="translate(71.000000, 0.000000)">
                        <path d="M62.6002878,63.4705036 L0.244028777,63.4705036 L0.244028777,56.1496403 L24.6745324,56.1496403 L24.8679137,56.2877698 C26.7413478,57.7076829 29.0187732,58.4931688 31.3692086,58.5300719 C33.7375053,58.4869873 36.0337344,57.7081682 37.9395683,56.3015827 L38.1421583,56.1358273 L62.5956835,56.1358273 L62.5956835,63.461295 L62.6002878,63.4705036 Z M1.72201439,61.992518 L61.1176978,61.992518 L61.1176978,57.6230216 L38.6578417,57.6230216 C36.5260538,59.1352853 33.9827901,59.9594763 31.3692086,59.985036 C28.790202,59.9561722 26.2843315,59.1241009 24.2002878,57.6046043 L1.72201439,57.6046043 L1.72201439,61.9741007 L1.72201439,61.992518 Z" id="Shape"></path>
                        <path d="M62.8351079,63.7191367 L0,63.7191367 L0,55.8917986 L24.7528058,55.8917986 L25.0106475,56.0759712 C26.842049,57.4667988 29.0698303,58.2362787 31.3692086,58.2722302 C33.6803283,58.2324159 35.9224445,57.4780741 37.7876259,56.1128058 L38.0592806,55.8917986 L62.8351079,55.8917986 L62.8351079,63.7191367 L62.8351079,63.7191367 Z M0.488057554,63.2080576 L62.3746763,63.2080576 L62.3746763,56.3936691 L38.2342446,56.3936691 L38.1007194,56.5041727 C36.1509592,57.9456454 33.7983156,58.7395217 31.3738129,58.7741007 C28.970366,58.7345065 26.6424649,57.927888 24.7297842,56.4719424 L24.6008633,56.3798561 L0.488057554,56.3798561 L0.488057554,63.2080576 Z M61.3663309,62.2227338 L1.47338129,62.2227338 L1.47338129,57.3789928 L24.2785612,57.3789928 L24.3430216,57.425036 C26.3856419,58.9143098 28.8414858,59.7302422 31.3692086,59.7594245 C33.9332943,59.7270091 36.426377,58.9125807 38.5151079,57.425036 L38.5795683,57.3789928 L61.3709353,57.3789928 L61.3709353,62.2411511 L61.3663309,62.2227338 Z M1.97064748,61.7300719 L60.8782734,61.7300719 L60.8782734,57.8532374 L38.7407194,57.8532374 C36.5804906,59.3697942 34.0130097,60.1994115 31.3738129,60.2336691 C28.7719989,60.2054836 26.2424401,59.3740901 24.131223,57.8532374 L1.96604317,57.8532374 L1.96604317,61.7300719 L1.97064748,61.7300719 Z" id="Shape"></path>
                        <path d="M25.6046043,18.3528058 L17.5608633,18.3528058 L17.5608633,10.3090647 L25.6046043,10.3090647 L25.6046043,18.3528058 L25.6046043,18.3528058 Z M19.0388489,16.8748201 L24.1266187,16.8748201 L24.1266187,11.7870504 L19.0388489,11.7870504 L19.0388489,16.8748201 Z" id="Shape"></path>
                        <path d="M25.8532374,18.5968345 L17.3168345,18.5968345 L17.3168345,10.0604317 L25.8532374,10.0604317 L25.8532374,18.5968345 Z M17.8094964,18.0857554 L25.3605755,18.0857554 L25.3605755,10.5346763 L17.8094964,10.5346763 L17.8094964,18.0857554 Z M24.3752518,17.1004317 L18.7948201,17.1004317 L18.7948201,11.5384173 L24.3752518,11.5384173 L24.3752518,17.1188489 L24.3752518,17.1004317 Z M19.287482,16.6077698 L23.8917986,16.6077698 L23.8917986,12.0034532 L19.287482,12.0034532 L19.287482,16.6077698 Z" id="Shape"></path>
                        <path d="M25.6046043,28.2843165 L17.5608633,28.2843165 L17.5608633,20.2405755 L25.6046043,20.2405755 L25.6046043,28.2843165 Z M19.0388489,26.8063309 L24.1266187,26.8063309 L24.1266187,21.7185612 L19.0388489,21.7185612 L19.0388489,26.8063309 Z" id="Shape"></path>
                        <path d="M25.8532374,28.5283453 L17.3168345,28.5283453 L17.3168345,19.9919424 L25.8532374,19.9919424 L25.8532374,28.5283453 Z M17.8094964,28.0356835 L25.3605755,28.0356835 L25.3605755,20.4846043 L17.8094964,20.4846043 L17.8094964,28.0356835 Z M24.3752518,27.0503597 L18.7948201,27.0503597 L18.7948201,21.4699281 L24.3752518,21.4699281 L24.3752518,27.0503597 L24.3752518,27.0503597 Z M19.287482,26.5576978 L23.8917986,26.5576978 L23.8917986,21.9533813 L19.287482,21.9533813 L19.287482,26.5576978 Z" id="Shape"></path>
                        <path d="M25.6046043,37.6402878 L17.5608633,37.6402878 L17.5608633,29.5965468 L25.6046043,29.5965468 L25.6046043,37.6402878 Z M19.0388489,36.1623022 L24.1266187,36.1623022 L24.1266187,31.0745324 L19.0388489,31.0745324 L19.0388489,36.1623022 L19.0388489,36.1623022 Z" id="Shape"></path>
                        <path d="M25.8532374,37.8843165 L17.3168345,37.8843165 L17.3168345,29.3479137 L25.8532374,29.3479137 L25.8532374,37.8843165 Z M17.8094964,37.3916547 L25.3605755,37.3916547 L25.3605755,29.8405755 L17.8094964,29.8405755 L17.8094964,37.3916547 Z M24.3752518,36.4063309 L18.7948201,36.4063309 L18.7948201,30.8258993 L24.3752518,30.8258993 L24.3752518,36.4063309 L24.3752518,36.4063309 Z M19.287482,35.9136691 L23.8917986,35.9136691 L23.8917986,31.3093525 L19.287482,31.3093525 L19.287482,35.9136691 Z" id="Shape"></path>
                        <path d="M25.6046043,47.4889209 L17.5608633,47.4889209 L17.5608633,39.4451799 L25.6046043,39.4451799 L25.6046043,47.4889209 Z M19.0388489,46.0109353 L24.1266187,46.0109353 L24.1266187,40.9231655 L19.0388489,40.9231655 L19.0388489,46.0109353 Z" id="Shape"></path>
                        <path d="M25.8532374,47.7329496 L17.3168345,47.7329496 L17.3168345,39.1965468 L25.8532374,39.1965468 L25.8532374,47.7329496 Z M17.8094964,47.2402878 L25.3605755,47.2402878 L25.3605755,39.6892086 L17.8094964,39.6892086 L17.8094964,47.2402878 Z M24.3752518,46.254964 L18.7948201,46.254964 L18.7948201,40.6745324 L24.3752518,40.6745324 L24.3752518,46.254964 L24.3752518,46.254964 Z M19.287482,45.7623022 L23.8917986,45.7623022 L23.8917986,41.1579856 L19.287482,41.1579856 L19.287482,45.7623022 Z" id="Shape"></path>
                        <rect id="Rectangle-path" x="28.7263309" y="13.5919424" width="16.5801439" height="1.47798561"></rect>
                        <path d="M45.5505036,15.3231655 L28.4776978,15.3231655 L28.4776978,13.3433094 L45.5505036,13.3433094 L45.5505036,15.3231655 Z M28.974964,14.8305036 L45.062446,14.8305036 L45.062446,13.8451799 L28.9703597,13.8451799 L28.9703597,14.8305036 L28.974964,14.8305036 Z" id="Shape"></path>
                        <rect id="Rectangle-path" x="28.8920863" y="23.5234532" width="16.5801439" height="1.47798561"></rect>
                        <path d="M45.716259,25.2454676 L28.6480576,25.2454676 L28.6480576,23.2748201 L45.7208633,23.2748201 L45.7208633,25.2454676 L45.716259,25.2454676 Z M29.1407194,24.7528058 L45.2282014,24.7528058 L45.2282014,23.767482 L29.1361151,23.767482 L29.1361151,24.7528058 L29.1407194,24.7528058 Z" id="Shape"></path>
                        <rect id="Rectangle-path" x="28.8920863" y="42.7280576" width="16.5801439" height="1.47798561"></rect>
                        <path d="M45.716259,44.4500719 L28.6480576,44.4500719 L28.6480576,42.4886331 L45.7208633,42.4886331 L45.7208633,44.4592806 L45.716259,44.4500719 Z M29.1407194,43.9574101 L45.2282014,43.9574101 L45.2282014,42.9720863 L29.1361151,42.9720863 L29.1361151,43.9574101 L29.1407194,43.9574101 Z" id="Shape"></path>
                        <path d="M35.0158273,41.4802878 L28.3902158,27.0733813 L43.2759712,33.5746763 L37.5620144,36.3833094 L35.0158273,41.4802878 Z M31.3323741,29.9694964 L35.0480576,38.0546763 L36.4293525,35.2920863 L39.7306475,33.6667626 L31.3323741,29.9694964 Z" id="Shape"></path>
                        <path d="M35.0066187,42.0282014 L27.897554,26.5715108 L43.8607194,33.5470504 L37.7461871,36.5536691 L35.0066187,42.0282014 Z M28.887482,27.5384173 L35.0296403,40.8909353 L37.382446,36.1807194 L42.6958273,33.5700719 L28.887482,27.5384173 Z M35.0664748,38.6117986 L30.8673381,29.4768345 L40.3568345,33.6207194 L36.6733813,35.462446 L35.0664748,38.6117986 Z M31.8434532,30.443741 L35.0664748,37.4745324 L36.2682014,35.0756835 L39.1689209,33.6483453 L31.8434532,30.443741 Z" id="Shape"></path>
                        <rect id="Rectangle-path" transform="translate(38.826349, 37.460917) rotate(-47.730000) translate(-38.826349, -37.460917) " x="38.0873562" y="35.0206296" width="1.47798561" height="4.88057554"></rect>
                        <path d="M40.145036,40.0115108 L36.1669065,36.3971223 L37.5113669,34.937554 L41.4894964,38.5519424 L40.145036,40.0115108 Z M36.8667626,36.3648921 L40.1128058,39.316259 L40.7758273,38.588777 L37.5113669,35.6328058 L36.8667626,36.3648921 Z" id="Shape"></path>
                        <path d="M55.2333813,53.5389928 L8.44892086,53.5389928 L8.44892086,22.7821583 L15.5902158,22.7821583 L15.5902158,52.0840288 L47.7605755,52.0840288 L47.5948201,22.7821583 L55.2333813,22.7821583 L55.2333813,53.5389928 L55.2333813,53.5389928 Z M49.2477698,52.0610072 L53.7646043,52.0610072 L53.7646043,24.2601439 L49.0820144,24.2601439 L49.2477698,52.0610072 Z M9.93611511,52.0610072 L14.1214388,52.0610072 L14.1214388,24.2601439 L9.93611511,24.2601439 L9.93611511,52.0840288 L9.93611511,52.0610072 Z" id="Shape"></path>
                        <path d="M55.4682014,53.8106475 L8.20489209,53.8106475 L8.20489209,22.5381295 L15.8388489,22.5381295 L15.8388489,51.84 L47.5165468,51.84 L47.3507914,22.5381295 L55.4682014,22.5381295 L55.4682014,53.8106475 Z M8.68374101,53.3179856 L55.0077698,53.3179856 L55.0077698,23.0307914 L47.8434532,23.0307914 L48.0092086,52.3326619 L15.3461871,52.3326619 L15.3461871,23.0307914 L8.69755396,23.0307914 L8.69755396,53.3179856 L8.68374101,53.3179856 Z M53.9902158,52.3326619 L48.9945324,52.3326619 L48.9945324,52.0886331 L48.8379856,24.0023022 L54.0040288,24.0023022 L54.0040288,52.3188489 L53.9902158,52.3326619 Z M49.4825899,51.84 L53.5067626,51.84 L53.5067626,24.508777 L49.3260432,24.508777 L49.4825899,51.84 Z M14.3608633,52.3326619 L9.6828777,52.3326619 L9.6828777,24.0161151 L14.3608633,24.0161151 L14.3608633,52.3326619 Z M10.1755396,51.84 L13.8589928,51.84 L13.8589928,24.508777 L10.1755396,24.508777 L10.1755396,51.84 Z" id="Shape"></path>
                        <path d="M5.58043165,53.8889209 L4.10244604,53.8889209 L4.10244604,21.5528058 C4.10596062,20.7662706 4.40888877,20.0105966 4.94964029,19.4394245 C5.69133637,18.7360112 6.69198325,18.3724429 7.71223022,18.4356835 L14.6877698,18.4356835 L14.6877698,19.927482 L7.71223022,19.927482 C7.09898966,19.8754363 6.49044155,20.0711003 6.02244604,20.4707914 C5.7429702,20.7637832 5.57935931,21.1482688 5.56201439,21.5528058 L5.56201439,53.9073381 L5.58043165,53.8889209 Z" id="Shape"></path>
                        <path d="M5.82446043,54.137554 L3.85381295,54.137554 L3.85381295,21.5528058 C3.8561588,20.6961059 4.18554746,19.8726342 4.77467626,19.2506475 C5.56180275,18.4958003 6.62819504,18.1036216 7.71683453,18.1686331 L14.9502158,18.1686331 L14.9502158,20.1392806 L7.71223022,20.1392806 C7.1662992,20.0866879 6.62173168,20.2522099 6.19741007,20.5997122 C5.96717838,20.8523208 5.83489403,21.1789488 5.82446043,21.5205755 L5.82446043,54.137554 L5.82446043,54.137554 Z M4.36028777,53.6448921 L5.34561151,53.6448921 L5.34561151,21.5343885 C5.35754637,21.0676978 5.54115288,20.6217962 5.86129496,20.2820144 C6.37455919,19.8338567 7.04676877,19.6114466 7.72604317,19.665036 L14.443741,19.665036 L14.443741,18.6797122 L7.71223022,18.6797122 C6.75938965,18.6151309 5.82243109,18.9485681 5.12460432,19.6005755 C4.62916915,20.1230434 4.35098734,20.8143827 4.34647482,21.5343885 L4.34647482,53.6356835 L4.36028777,53.6448921 Z" id="Shape"></path>
                        <path d="M58.7648921,53.8889209 L57.2869065,53.8889209 L57.2869065,21.5528058 C57.2735795,21.1419413 57.1097146,20.7503043 56.8264748,20.4523741 C56.3584793,20.052683 55.7499312,19.8570191 55.1366906,19.9090647 L48.174964,19.9090647 L48.174964,18.4310791 L55.1505036,18.4310791 C56.1707506,18.3678385 57.1713974,18.7314069 57.9130935,19.4348201 C58.4591912,20.0137009 58.76242,20.7800127 58.7602878,21.5758273 L58.7602878,53.8889209 L58.7648921,53.8889209 Z" id="Shape"></path>
                        <path d="M59.0089209,54.137554 L57.0382734,54.137554 L57.0382734,21.5528058 C57.0278398,21.211179 56.8955554,20.884551 56.6653237,20.6319424 C56.2410021,20.2844402 55.6964346,20.1189181 55.1505036,20.1715108 L47.9309353,20.1715108 L47.9309353,18.2008633 L55.1551079,18.2008633 C56.2437474,18.1358518 57.3101397,18.5280305 58.0972662,19.2828777 C58.6896276,19.9027902 59.0195551,20.7276087 59.0181295,21.585036 L59.0181295,54.137554 L59.0089209,54.137554 Z M57.5309353,53.6448921 L58.516259,53.6448921 L58.516259,21.5758273 C58.5171587,20.8452159 58.2387913,20.1418853 57.7381295,19.6097842 C57.0405971,18.9572931 56.1034215,18.6237786 55.1505036,18.6889209 L48.4235971,18.6889209 L48.4235971,19.6742446 L55.1551079,19.6742446 C55.8343823,19.6206552 56.5065919,19.8430653 57.0198561,20.291223 C57.3412273,20.6375958 57.5246665,21.0896424 57.5355396,21.5620144 L57.5355396,53.6541007 L57.5309353,53.6448921 Z" id="Shape"></path>
                        <path d="M15.5902158,23.5234532 L14.1122302,23.5234532 L14.1122302,6.21122302 C14.1398561,6.07309353 14.8627338,2.86388489 17.4411511,1.40431655 C18.2729077,0.936697352 19.2127554,0.695385103 20.1669065,0.704460432 L51.6834532,0.704460432 C53.5804317,0.745899281 57.1671942,1.69899281 57.2592806,5.01870504 C57.337554,7.71223022 57.2592806,7.78129496 57.1395683,8.00690647 L56.9185612,8.33841727 L25.2316547,8.33841727 L25.1948201,7.63395683 C25.1948201,7.60172662 25.0152518,4.49841727 23.0307914,3.40258993 C21.6290223,2.69261994 20.0558787,2.39107417 18.4909353,2.5323741 C18.385036,2.57841727 18.283741,2.62906475 18.1870504,2.68892086 C16.3453237,3.72489209 15.6961151,6.02705036 15.5902158,6.4552518 L15.5902158,23.5234532 L15.5902158,23.5234532 Z M26.5899281,6.86043165 L55.8365468,6.86043165 C55.8365468,6.50129496 55.8365468,5.93956835 55.8043165,5.06014388 C55.7260432,2.29755396 51.7294964,2.18244604 51.6880576,2.18244604 L23.8733813,2.18244604 C25.8071942,3.35194245 26.4103597,5.68172662 26.5945324,6.86043165 L26.5899281,6.86043165 Z" id="Shape"></path>
                        <path d="M15.8388489,23.767482 L13.8682014,23.767482 L13.8682014,6.21122302 C13.905036,6.01784173 14.6601439,2.6981295 17.3214388,1.18791367 C18.1910159,0.698648246 19.1737872,0.446207789 20.1715108,0.455827338 L51.6880576,0.455827338 C53.6633094,0.497266187 57.411223,1.50561151 57.512518,5.0094964 C57.5907914,7.77208633 57.512518,7.87338129 57.3513669,8.14043165 L57.061295,8.60086331 L24.9968345,8.60086331 L24.9507914,7.68 C24.9507914,7.56028777 24.7482014,4.66417266 22.9156835,3.65122302 C21.7785339,3.06151289 20.5130605,2.76254481 19.2322302,2.78100719 C18.9329496,2.78100719 18.7073381,2.78100719 18.5692086,2.80863309 L18.3205755,2.93755396 C16.5801439,3.9228777 15.9493525,6.11913669 15.8388489,6.55194245 L15.8388489,23.767482 Z M14.3608633,23.2748201 L15.3461871,23.2748201 L15.3461871,6.4552518 C15.4705036,5.93035971 16.1565468,3.55913669 18.0673381,2.4771223 C18.1732374,2.41726619 18.283741,2.36201439 18.3942446,2.31136691 L18.472518,2.31136691 C18.6060432,2.31136691 18.8684892,2.27913669 19.2230216,2.27913669 C20.5897822,2.2554424 21.9409957,2.57188583 23.1551079,3.2 C25.222446,4.3418705 25.4572662,7.49582734 25.4572662,7.62935252 L25.4802878,8.08978417 L56.8264748,8.08978417 L56.9738129,7.86877698 C57.0705036,7.72604317 57.1257554,7.63856115 57.0520863,5.02330935 C56.9646043,1.8923741 53.5205755,0.989928058 51.7156835,0.948489209 L20.1899281,0.948489209 C19.277844,0.939581239 18.3793389,1.16976366 17.5838849,1.61611511 C15.1113669,2.99741007 14.4023022,6.12834532 14.3608633,6.2618705 L14.3608633,23.2748201 Z M56.0851799,7.10446043 L26.3827338,7.10446043 L26.3505036,6.89726619 C26.1617266,5.68172662 25.5723741,3.47625899 23.7490647,2.3942446 L22.9801439,1.93381295 L51.6926619,1.93381295 C51.738705,1.93381295 55.9700719,2.06733813 56.057554,5.05093525 C56.0805755,5.93035971 56.0897842,6.49669065 56.0897842,6.86043165 L56.0897842,7.10446043 L56.0851799,7.10446043 Z M26.8017266,6.61179856 L55.5879137,6.61179856 C55.5879137,6.25726619 55.5879137,5.76 55.5556835,5.0647482 C55.4866187,2.54158273 51.7202878,2.42647482 51.6788489,2.42647482 L24.6192806,2.42647482 C26.051223,3.61899281 26.5945324,5.44690647 26.8017266,6.61640288 L26.8017266,6.61179856 Z" id="Shape"></path>
                        <rect id="Rectangle-path" x="47.6040288" y="7.60172662" width="1.47798561" height="15.9217266"></rect>
                        <path d="M49.3260432,23.767482 L47.3553957,23.767482 L47.3553957,7.35309353 L49.3260432,7.35309353 L49.3260432,23.767482 Z M47.8480576,23.2748201 L48.8333813,23.2748201 L48.8333813,7.8457554 L47.8480576,7.8457554 L47.8480576,23.2748201 Z" id="Shape"></path>
                    </g>
                </g>
            </g>
        </g>
    </g>
</svg>