<?xml version="1.0" encoding="UTF-8"?>
<svg width="61px" height="64px" viewBox="0 0 61 64" version="1.1" xmlns="http://www.w3.org/2000/svg" xmlns:xlink="http://www.w3.org/1999/xlink">
    <!-- Generator: Sketch 43.1 (39012) - http://www.bohemiancoding.com/sketch -->
    <title>mars-1</title>
    <desc>Created with Sketch.</desc>
    <defs></defs>
    <g id="Page-1" stroke="none" stroke-width="1" fill="none" fill-rule="evenodd">
        <g id="Desktop-Copy-11" transform="translate(-815.000000, -2602.000000)" fill="#FFFFFF">
            <g id="Group-32" transform="translate(52.000000, 2602.000000)">
                <g id="Group-40" transform="translate(667.000000, 0.000000)">
                    <g id="mars-1" transform="translate(96.000000, 0.000000)">
                        <path d="M45.3464615,38.3458462 L3.82030769,38.3458462 L3.82030769,7.14830769 L44.8246154,7.14830769 L60.7064615,23.0006154 L45.3464615,38.3458462 Z M5.39569231,36.7852308 L44.6916923,36.7852308 L58.4516923,23.0006154 L44.1747692,8.72369231 L5.39569231,8.72369231 L5.39569231,36.7852308 Z" id="Shape"></path>
                        <path d="M45.4449231,38.6067692 L3.55446154,38.6067692 L3.55446154,6.88246154 L44.9083077,6.88246154 L61.056,23.0006154 L45.4449231,38.6067692 Z M4.09107692,38.08 L45.248,38.08 L60.3126154,23.0006154 L44.7113846,7.39938462 L4.09107692,7.39938462 L4.09107692,38.0701538 L4.09107692,38.08 Z M44.8098462,37.0264615 L5.13476923,37.0264615 L5.13476923,8.47261538 L44.2781538,8.47261538 L58.8209231,23.0006154 L44.8098462,37.0264615 Z M5.66646154,36.4996923 L44.5883077,36.4996923 L58.0775385,23.0006154 L44.0566154,8.97969231 L5.65661538,8.97969231 L5.65661538,36.4898462 L5.66646154,36.4996923 Z" id="Shape"></path>
                        <path d="M28.3766154,34.5255385 C21.8701912,34.5255385 16.5956923,29.2510395 16.5956923,22.7446154 C16.5956923,16.2381912 21.8701912,10.9636923 28.3766154,10.9636923 C34.8830395,10.9636923 40.1575385,16.2381912 40.1575385,22.7446154 C40.1386118,29.2431837 34.8751837,34.5066118 28.3766154,34.5255385 L28.3766154,34.5255385 Z M28.3766154,12.544 C22.7429711,12.544 18.176,17.1109711 18.176,22.7446154 C18.176,28.3782597 22.7429711,32.9452308 28.3766154,32.9452308 C34.0102597,32.9452308 38.5772308,28.3782597 38.5772308,22.7446154 C38.5690965,17.1143438 34.0068869,12.5521343 28.3766154,12.544 Z" id="Shape"></path>
                        <path d="M28.3766154,34.7913846 C21.7233685,34.7913846 16.3298462,29.3978623 16.3298462,22.7446154 C16.3298462,16.0913685 21.7233685,10.6978462 28.3766154,10.6978462 C35.0298623,10.6978462 40.4233846,16.0913685 40.4233846,22.7446154 C40.4179552,29.3956121 35.0276121,34.7859552 28.3766154,34.7913846 L28.3766154,34.7913846 Z M28.3766154,11.2295385 C22.0142951,11.2295385 16.8566154,16.3872181 16.8566154,22.7495385 C16.8566154,29.1118588 22.0142951,34.2695385 28.3766154,34.2695385 C34.7389357,34.2695385 39.8966154,29.1118588 39.8966154,22.7495385 C39.8911864,16.3894683 34.7366856,11.2349675 28.3766154,11.2295385 Z M28.3766154,33.2110769 C22.5961483,33.2110769 17.9101538,28.5250825 17.9101538,22.7446154 C17.9101538,16.9641483 22.5961483,12.2781538 28.3766154,12.2781538 C34.1570825,12.2781538 38.8430769,16.9641483 38.8430769,22.7446154 C38.8376488,28.5228326 34.1548326,33.2056488 28.3766154,33.2110769 L28.3766154,33.2110769 Z M28.3766154,12.8049231 C22.8870749,12.8049231 18.4369231,17.2550749 18.4369231,22.7446154 C18.4369231,28.2341559 22.8870749,32.6843077 28.3766154,32.6843077 C33.8661559,32.6843077 38.3163077,28.2341559 38.3163077,22.7446154 C38.3108801,17.2573247 33.8639061,12.8103507 28.3766154,12.8049231 L28.3766154,12.8049231 Z" id="Shape"></path>
                        <polygon id="Shape" points="26.5747692 27.7316923 23.1384615 24.2904615 24.2510769 23.1778462 26.3433846 25.2652308 31.168 18.1563077 32.4775385 19.0424615"></polygon>
                        <path d="M26.6141538,28.1403077 L22.7643077,24.2904615 L24.2412308,22.8135385 L26.2892308,24.8615385 L31.0892308,17.7969231 L32.832,18.9784615 L26.6141538,28.1403077 Z M23.5076923,24.2904615 L26.5353846,27.3181538 L32.1083077,19.1113846 L31.2369231,18.5206154 L26.3778462,25.6738462 L24.2756923,23.5470769 L23.5076923,24.2904615 Z" id="Shape"></path>
                        <rect id="Rectangle-path" x="8.45784615" y="10.2744615" width="1.58030769" height="25.1421538"></rect>
                        <path d="M10.2990769,35.6775385 L8.19692308,35.6775385 L8.19692308,10.0086154 L10.304,10.0086154 L10.304,35.6775385 L10.2990769,35.6775385 Z M8.71876923,35.1507692 L9.77230769,35.1507692 L9.77230769,10.5353846 L8.72369231,10.5353846 L8.72369231,35.1507692 L8.71876923,35.1507692 Z" id="Shape"></path>
                        <polygon id="Shape" points="10.0381538 59.3427692 3.81538462 59.3427692 3.81538462 37.5581538 5.39569231 37.5581538 5.39569231 57.7624615 8.45784615 57.7624615 8.45784615 37.5581538 10.0381538 37.5581538"></polygon>
                        <path d="M10.2990769,59.6036923 L3.55446154,59.6036923 L3.55446154,37.2775385 L5.66153846,37.2775385 L5.66153846,57.4621538 L8.19692308,57.4621538 L8.19692308,37.2775385 L10.304,37.2775385 L10.304,59.5889231 L10.2990769,59.6036923 Z M4.09107692,59.0769231 L9.77230769,59.0769231 L9.77230769,37.8190769 L8.72369231,37.8190769 L8.72369231,58.0036923 L5.13476923,58.0036923 L5.13476923,37.8190769 L4.09107692,37.8190769 L4.09107692,59.0769231 Z" id="Shape"></path>
                        <path d="M14.2818462,63.552 L0.265846154,63.552 L0.265846154,58.0873846 L14.2818462,58.0873846 L14.2818462,63.552 Z M1.84123077,61.9716923 L12.7015385,61.9716923 L12.7015385,59.6676923 L1.84615385,59.6676923 L1.84615385,61.9716923 L1.84123077,61.9716923 Z" id="Shape"></path>
                        <path d="M14.5476923,63.8178462 L0,63.8178462 L0,57.8264615 L14.5476923,57.8264615 L14.5476923,63.8178462 Z M0.526769231,63.2910769 L14.0209231,63.2910769 L14.0209231,58.368 L0.526769231,58.368 L0.526769231,63.2910769 L0.526769231,63.2910769 Z M12.9526154,62.2375385 L1.58030769,62.2375385 L1.58030769,59.4067692 L12.9526154,59.4067692 L12.9526154,62.2375385 Z M2.12184615,61.7107692 L12.4603077,61.7107692 L12.4603077,59.9236923 L2.12184615,59.9236923 L2.12184615,61.7009231 L2.12184615,61.7107692 Z" id="Shape"></path>
                        <path d="M10.0381538,7.936 L8.45784615,7.936 L8.45784615,3.19507692 C8.45784615,2.56 7.56184615,2.33353846 6.72,2.33353846 C5.80430769,2.33353846 5.46461538,3.46584615 5.39569231,3.74646154 L5.39569231,7.936 L3.82030769,7.936 L3.82030769,3.50523077 C4.00738462,2.55507692 4.84923077,0.753230769 6.71015385,0.753230769 C9.17169231,0.753230769 10.0233846,2.06769231 10.0233846,3.21476923 L10.0233846,7.95569231 L10.0381538,7.936 Z" id="Shape"></path>
                        <path d="M10.2990769,8.20184615 L8.19692308,8.20184615 L8.19692308,3.19507692 C8.19692308,2.78153846 7.45846154,2.59446154 6.72,2.59446154 C5.98153846,2.59446154 5.70092308,3.60369231 5.65169231,3.80553846 L5.65169231,8.19692308 L3.55446154,8.19692308 L3.55446154,3.50523077 C3.76123077,2.432 4.672,0.487384615 6.70523077,0.487384615 C9.34892308,0.487384615 10.2843077,1.96430769 10.2843077,3.19507692 L10.2843077,8.19692308 L10.2990769,8.20184615 Z M8.71876923,7.67507692 L9.77230769,7.67507692 L9.77230769,3.2 C9.77230769,2.21538462 8.97476923,1.01907692 6.72,1.01907692 C5.03138462,1.01907692 4.25846154,2.68307692 4.08615385,3.55938462 L4.08615385,7.67507692 L5.13969231,7.67507692 L5.13969231,3.73661538 C5.34153846,2.89476923 5.85846154,2.06276923 6.72984615,2.06276923 C7.96061538,2.06276923 8.72861538,2.496 8.72861538,3.19015385 L8.72861538,7.66523077 L8.71876923,7.67507692 Z" id="Shape"></path>
                    </g>
                </g>
            </g>
        </g>
    </g>
</svg>