<?xml version="1.0" encoding="UTF-8"?>
<svg width="64px" height="64px" viewBox="0 0 64 64" version="1.1" xmlns="http://www.w3.org/2000/svg" xmlns:xlink="http://www.w3.org/1999/xlink">
    <!-- Generator: Sketch 43.1 (39012) - http://www.bohemiancoding.com/sketch -->
    <title>mars-3</title>
    <desc>Created with Sketch.</desc>
    <defs></defs>
    <g id="Page-1" stroke="none" stroke-width="1" fill="none" fill-rule="evenodd">
        <g id="Desktop-Copy-11" transform="translate(-480.000000, -2602.000000)" fill="#FFFFFF">
            <g id="Group-32" transform="translate(52.000000, 2602.000000)">
                <g id="Group-41" transform="translate(353.000000, 0.000000)">
                    <g id="mars-3" transform="translate(75.000000, 0.000000)">
                        <path d="M13.6608451,27.3171831 C17.4307641,27.3146939 20.4853351,24.2574325 20.4845054,20.4875127 C20.4836756,16.7175929 17.4277592,13.6616765 13.6578394,13.6608467 C9.8879196,13.660017 6.83065823,16.714588 6.82816901,20.484507 C6.83065505,24.2570596 9.88829251,27.3146971 13.6608451,27.3171831 L13.6608451,27.3171831 L13.6608451,27.3171831 Z M13.6608451,15.9323944 C16.1773948,15.9348848 18.2154429,17.9769699 18.2129533,20.4935196 C18.2104637,23.0100694 16.1683793,25.0481181 13.6518295,25.0456293 C11.1352797,25.0431406 9.09723037,23.0010568 9.09971831,20.484507 C9.1046897,17.9689872 11.1453203,15.9323895 13.6608451,15.9323944 L13.6608451,15.9323944 L13.6608451,15.9323944 Z" id="Shape"></path>
                        <path d="M50.0867606,27.3171831 C53.8566796,27.3146939 56.9112506,24.2574325 56.9104209,20.4875127 C56.9095911,16.7175929 53.8536747,13.6616765 50.0837549,13.6608467 C46.3138351,13.660017 43.2565737,16.714588 43.2540845,20.484507 C43.2565705,24.2570596 46.314208,27.3146971 50.0867606,27.3171831 L50.0867606,27.3171831 L50.0867606,27.3171831 Z M50.0867606,15.9323944 C51.9305602,15.9305715 53.5937367,17.0400876 54.3001706,18.7431882 C55.0066045,20.4462889 54.617046,22.4072647 53.3132821,23.7110286 C52.0095182,25.0147924 50.0485424,25.404351 48.3454418,24.6979171 C46.6423412,23.9914832 45.532825,22.3283067 45.5346479,20.484507 C45.5371324,17.9714744 47.573728,15.9348788 50.0867606,15.9323944 L50.0867606,15.9323944 L50.0867606,15.9323944 Z" id="Shape"></path>
                        <path d="M61.4715493,29.6202817 L61.4715493,44.4169014 C61.4715558,46.3026673 59.9454777,47.8327774 58.0597183,47.8377465 L58.0597183,35.2901408 C58.0423853,32.1571805 55.5003284,29.6251871 52.3673239,29.6202817 L46.6749296,29.6202817 C46.0451694,29.6202817 45.5346479,30.1308032 45.5346479,30.7605634 L45.5346479,37.5842254 L36.4304225,37.5842254 C35.8006623,37.5842254 35.2901408,38.0947469 35.2901408,38.724507 L35.2901408,42.1453521 L28.4574648,42.1453521 L28.4574648,38.724507 C28.4574648,38.0947469 27.9469433,37.5842254 27.3171831,37.5842254 L18.2129577,37.5842254 L18.2129577,30.7380282 C18.2129577,30.108268 17.7024362,29.5977465 17.0726761,29.5977465 L11.3847887,29.5977465 C8.2419962,29.6002319 5.69487977,32.1473483 5.69239437,35.2901408 L5.69239437,47.8152113 C3.80663498,47.8102422 2.28055683,46.2801321 2.28056338,44.3943662 L2.28056338,29.6202817 L0,29.6202817 L0,44.4169014 C0.000993792366,46.6772668 1.34032793,48.722538 3.41183099,49.6270423 L3.41183099,63.7746479 L5.69239437,63.7746479 L5.69239437,50.0867606 L17.0771831,50.0867606 L17.0771831,62.611831 C17.0771831,63.2415912 17.5877046,63.7521127 18.2174648,63.7521127 L23.9098592,63.7521127 L23.9098592,44.3943662 L39.8467606,44.3943662 L39.8467606,63.7521127 L45.5346479,63.7521127 C46.1644081,63.7521127 46.6749296,63.2415912 46.6749296,62.611831 L46.6749296,50.0867606 L58.0597183,50.0867606 L58.0597183,63.7521127 L60.3132394,63.7521127 L60.3132394,49.604507 C62.3874815,48.7017954 63.7303548,46.6565233 63.7340845,44.3943662 L63.7340845,29.6202817 L61.4535211,29.6202817 L61.4715493,29.6202817 Z M22.7650704,42.1453521 L13.6608451,42.1453521 L13.6608451,35.2901408 L11.3802817,35.2901408 L11.3802817,43.2540845 C11.3802817,43.8838447 11.8908032,44.3943662 12.5205634,44.3943662 L20.484507,44.3943662 C21.1142672,44.3943662 21.6247887,44.9048877 21.6247887,45.5346479 L21.6247887,61.4715493 L19.3712676,61.4715493 L19.3712676,48.9464789 C19.3700746,48.645252 19.2492674,48.3568367 19.0354226,48.1446824 C18.8215777,47.932528 18.5322128,47.8140136 18.2309859,47.8152113 L7.97295775,47.8152113 L7.97295775,35.2901408 C7.9729512,33.4043749 9.49902934,31.8742649 11.3847887,31.8692958 L15.9369014,31.8692958 L15.9369014,38.7019718 C15.9369014,39.331732 16.4474229,39.8422535 17.0771831,39.8422535 L26.1814085,39.8422535 L26.1814085,42.1228169 L22.7695775,42.1228169 L22.7650704,42.1453521 Z M45.5346479,47.8377465 C45.233421,47.8365488 44.9440561,47.9550632 44.7302112,48.1672176 C44.5163664,48.3793719 44.3955592,48.6677872 44.3943662,48.9690141 L44.3943662,61.4940845 L42.1408451,61.4940845 L42.1408451,45.5346479 C42.1408255,44.9083912 42.6458755,44.3993168 43.2721127,44.3943662 L51.2135211,44.3943662 C51.8432813,44.3943662 52.3538028,43.8838447 52.3538028,43.2540845 L52.3538028,35.2901408 L50.0867606,35.2901408 L50.0867606,42.1228169 L37.5661972,42.1228169 L37.5661972,39.8422535 L46.6794366,39.8422535 C47.3091968,39.8422535 47.8197183,39.331732 47.8197183,38.7019718 L47.8197183,31.8738028 L52.371831,31.8738028 C54.2575904,31.8787719 55.7836685,33.408882 55.783662,35.2946479 L55.783662,47.8197183 L45.5346479,47.8197183 L45.5346479,47.8377465 Z" id="Shape"></path>
                        <path d="M21.6292958,11.3802817 L21.6292958,14.7921127 C21.629938,15.2820976 21.9435361,15.7168931 22.4082747,15.8721465 C22.8730134,16.0273998 23.3849793,15.8683971 23.68,15.4771831 L26.7538028,11.3802817 L35.2901408,11.3802817 C37.1734137,11.3777988 38.6994889,9.85172352 38.7019718,7.9684507 L38.7019718,3.41183099 C38.6994889,1.52855817 37.1734137,0.00248289422 35.2901408,0 L21.6292958,0 C19.746023,0.00248289422 18.2199477,1.52855817 18.2174648,3.41183099 L18.2174648,7.98647887 C18.2199477,9.86975169 19.746023,11.395827 21.6292958,11.3983099 L21.6292958,11.3983099 L21.6292958,11.3802817 Z M20.4890141,3.40732394 C20.4939647,2.78108681 21.0030391,2.27603677 21.6292958,2.27605634 L35.2946479,2.27605634 C35.9209046,2.27603677 36.4299789,2.78108681 36.4349296,3.40732394 L36.4349296,7.98647887 C36.4299789,8.612716 35.9209046,9.11776605 35.2946479,9.11774648 L26.1814085,9.11774648 C25.8270854,9.11915114 25.4937176,9.28583506 25.28,9.5684507 L23.9278873,11.3712676 L23.9278873,10.24 C23.9278873,9.61023981 23.4173658,9.09971831 22.7876056,9.09971831 L21.6473239,9.09971831 C21.0210672,9.09973788 20.5119929,8.59468783 20.5070423,7.9684507 L20.5070423,3.41183099 L20.4890141,3.40732394 Z" id="Shape"></path>
                        <rect id="Rectangle-path" x="22.7695775" y="4.55211268" width="11.3847887" height="2.28056338"></rect>
                        <rect id="Rectangle-path" x="30.7380282" y="28.4619718" width="6.82816901" height="2.28056338"></rect>
                        <path d="M29.5797183,23.9053521 C27.6939524,23.9053456 26.1638423,25.4314237 26.1588732,27.3171831 L26.1588732,31.8738028 C26.1613562,33.762054 27.6914672,35.292165 29.5797183,35.2946479 L38.6839437,35.2946479 C40.5721948,35.292165 42.1023058,33.762054 42.1047887,31.8738028 L42.1047887,31.0850704 L44.1870423,27.9571831 C44.418857,27.6062649 44.4395879,27.1564926 44.2410366,26.7857379 C44.0424852,26.4149832 43.6566266,26.182953 43.2360563,26.1814085 L41.9290141,26.1814085 C41.4348301,24.8279072 40.1473756,23.9275894 38.7064789,23.9278873 L29.5797183,23.9278873 L29.5797183,23.9053521 Z M39.8242254,27.3171831 C39.8242254,27.9469433 40.3347469,28.4574648 40.964507,28.4574648 L41.1132394,28.4574648 L40.0135211,30.1025352 C39.8898428,30.2913935 39.8240478,30.5122767 39.8242254,30.7380282 L39.8242254,31.8738028 C39.8242254,32.503563 39.3137038,33.0140845 38.6839437,33.0140845 L29.5797183,33.0140845 C28.9499581,33.0140845 28.4394366,32.503563 28.4394366,31.8738028 L28.4394366,27.3216901 C28.4394366,26.69193 28.9499581,26.1814085 29.5797183,26.1814085 L38.6839437,26.1814085 C39.3137038,26.1814085 39.8242254,26.69193 39.8242254,27.3216901 L39.8242254,27.3216901 L39.8242254,27.3171831 Z" id="Shape"></path>
                        <rect id="Rectangle-path" x="26.1814085" y="18.2174648" width="2.28056338" height="2.27605634"></rect>
                        <rect id="Rectangle-path" x="30.7380282" y="18.2174648" width="2.27605634" height="2.27605634"></rect>
                        <rect id="Rectangle-path" x="35.2946479" y="18.2174648" width="2.27605634" height="2.27605634"></rect>
                    </g>
                </g>
            </g>
        </g>
    </g>
</svg>